<?xml version="1.0" encoding="utf-8"?>
<!-- Generator: Adobe Illustrator 26.1.0, SVG Export Plug-In . SVG Version: 6.00 Build 0)  -->
<svg version="1.1" id="Layer_1" xmlns="http://www.w3.org/2000/svg" xmlns:xlink="http://www.w3.org/1999/xlink" x="0px" y="0px"
	 viewBox="0 0 336.1 135.9" style="enable-background:new 0 0 336.1 135.9;" xml:space="preserve">
<style type="text/css">
	.st0{fill:#0148FF;}
</style>
<g id="a">
</g>
<g id="b">
	<g id="c">
		<g>
			<path d="M46.5,45.4v26.1h-25V42C14.2,40.9,7,39.6,0,38.2v78h21.5V90.2h25v26.1h21.6V47.6C60.8,47,53.6,46.3,46.5,45.4"/>
			<path d="M227.1,80c-0.9,4.2-1.9,8.4-2.8,12.6c-0.1,0-0.2,0-0.3,0c-2.8-12.1-7.9-33.9-10.9-47.2c-5.2,0.6-10.5,1.2-15.9,1.6
				c-2.3,10-6.1,26.2-8.6,36.8c-0.1,0.4-0.2,0.8-0.3,1.3c0,0.1,0,0.1,0,0.1c-0.1,0.7-0.3,1.3-0.4,1.9c-0.4,1.8-0.9,3.7-1.3,5.6
				l-0.3-0.1c-3-13.1-6.2-27.6-9.2-40.6l0,0c-0.3-1.2-0.5-2.3-0.8-3.4c-7.1,0.4-14.2,0.8-21.5,1c5.7,20,19,66.6,19,66.6h23
				c0,0,3.5-13.8,5.2-20.1c1-3.9,2.1-7.8,3.1-11.7c0.1,0,0.2,0,0.3,0c2.7,10.6,5.4,21.1,8.1,31.8h22.9c5.7-19.7,16.5-56.5,22.6-77.8
				c-7.7,1.4-15.5,2.8-23.5,3.9C233,53.4,228.6,73.2,227.1,80"/>
			<path d="M188.6,83.8c-0.1,0.4-0.2,0.8-0.3,1.3C188.4,84.7,188.5,84.3,188.6,83.8"/>
			<path d="M188.2,85.2c-0.2,0.7-0.3,1.3-0.4,1.9C187.9,86.5,188.1,85.9,188.2,85.2"/>
			<path d="M177,52c2.9,13,6.2,27.5,9.2,40.6C183.5,81.1,179.8,64.7,177,52L177,52L177,52z"/>
			<path d="M126.6,50.1v9c-0.4-0.3-0.5-0.3-0.6-0.5c-10.6-11.1-30-9.8-40.1,2.2c-5.6,6.7-8,14.5-8.1,23.1c-0.1,8.9,2.2,17,8.1,24
				c10.2,12.1,29.4,13.4,40.1,2.3c0.1-0.1,0.3-0.2,0.8-0.6v6.8h20.5V49.9c-1.7,0-3.4,0.1-5.1,0.1C136.9,50.1,131.8,50.1,126.6,50.1
				 M116.3,99.1c-7.4,1.8-14.4-1.9-16.8-9.2c-1.5-4.6-1.3-9.2,1-13.5c2.8-5.3,8.4-8.1,14.1-7.3c5.9,0.9,10.6,5.3,11.8,11.1
				c0.3,1.3,0.4,2.7,0.6,4.1C126.7,91.5,122.4,97.6,116.3,99.1"/>
			<path class="st0" d="M264.3,37.5l19.3,34.9l-24.2,43.9H282l12.9-23.4l12.9,23.4h22.6l-45.9-83.1
				C277.9,34.7,271.2,36.1,264.3,37.5"/>
			<path class="st0" d="M336.1,18.2c-8.8,3.1-17.9,6-27.5,8.7L298,46.2l11.3,20.5L336.1,18.2z"/>
		</g>
	</g>
</g>
</svg>
