<svg width="119" height="35" viewBox="0 0 119 35" fill="none" xmlns="http://www.w3.org/2000/svg">
<path d="M16.35 9.58527V18.7463H7.57234V17.8012V15.2054V8.38816C4.99783 7.98493 2.46952 7.53968 0 7.05664V34.4852H7.57234V25.3073H16.35V34.4684H23.9224V10.3413C21.3605 10.1271 18.8364 9.8751 16.35 9.58527Z" fill="white"/>
<path d="M79.8271 21.716C79.4953 23.1945 79.1593 24.673 78.8275 26.1516L78.7267 26.1474C77.7314 21.8924 75.9632 14.2183 74.8797 9.55585C73.0359 9.76587 71.1754 9.95908 69.2939 10.1313C68.4833 13.647 67.1435 19.3553 66.27 23.0811C66.2364 23.2281 66.1986 23.3793 66.165 23.5263C66.1608 23.5431 66.1566 23.5599 66.1524 23.5767C66.0978 23.8078 66.0474 24.0304 65.9928 24.253C65.8416 24.9041 65.682 25.5551 65.5266 26.2062C65.4888 26.1978 65.451 26.1894 65.4132 26.181C64.3716 21.5774 63.2209 16.4949 62.1877 11.9081H62.1919C62.0995 11.4922 62.0071 11.0932 61.9189 10.7026C59.4284 10.858 56.9169 10.9798 54.376 11.068C56.3877 18.1036 59.105 27.6301 61.0579 34.4851C63.4435 34.4767 66.7698 34.4599 69.1553 34.4809C69.7306 32.2589 70.3984 29.6337 70.978 27.4117C71.335 26.0424 71.7004 24.6772 72.0658 23.3121C72.0994 23.3163 72.1288 23.3205 72.1624 23.3205C73.1115 27.0421 74.0565 30.7678 75.0099 34.4977H83.0568C85.0517 27.5629 88.8526 14.6215 91.0113 7.14062C88.3108 7.64467 85.5515 8.10671 82.7418 8.52255C81.8892 12.3743 80.3563 19.3595 79.8271 21.716Z" fill="white"/>
<path d="M66.2739 23.085C66.2403 23.2362 66.2025 23.3832 66.1689 23.5302C66.2025 23.3832 66.2403 23.232 66.2739 23.085Z" fill="white"/>
<path d="M66.1606 23.5771C66.106 23.8124 66.0514 24.0392 66.001 24.2534C66.0514 24.035 66.106 23.8082 66.1606 23.5771Z" fill="white"/>
<path d="M62.1914 11.9082C63.2288 16.495 64.3753 21.5775 65.4169 26.1811C64.5013 22.1109 63.1994 16.3564 62.1914 11.9082Z" fill="white"/>
<path d="M44.5055 11.2234V14.3905C44.3753 14.298 44.3207 14.2728 44.2787 14.2308C40.5535 10.3413 33.7497 10.7823 30.205 14.9827C28.2269 17.3265 27.3827 20.0736 27.3533 23.0895C27.3239 26.2145 28.1429 29.0708 30.1798 31.5112C33.7455 35.7746 40.5073 36.2367 44.2787 32.3093C44.3249 32.2589 44.3879 32.2253 44.5475 32.1035V34.5019H51.7461V11.1436C51.1497 11.1562 50.5491 11.173 49.9527 11.1814C48.13 11.215 46.3115 11.2276 44.5055 11.2234ZM40.86 28.4491C38.2645 29.096 35.7908 27.7687 34.9424 25.2232C34.4007 23.6061 34.4805 22.0016 35.291 20.4768C36.2738 18.6286 38.2477 17.6205 40.2343 17.9272C42.3132 18.2506 43.9679 19.7963 44.3753 21.8251C44.4719 22.2956 44.5097 22.7786 44.5727 23.2575C44.5265 25.7819 43.0188 27.9115 40.86 28.4491Z" fill="white"/>
<path d="M92.8884 6.78353L99.6585 19.0571L91.0908 34.5901L99.0202 34.6321L103.636 26.2649L108.251 34.6321L116.181 34.5901L100.003 5.25879C97.6804 5.80064 95.3075 6.30888 92.8884 6.78353Z" fill="white"/>
<path d="M118.121 0C115.047 1.0921 111.826 2.11699 108.474 3.07048L104.724 9.8709L108.701 17.083L118.121 0Z" fill="white"/>
</svg>
