<svg width="119" height="35" viewBox="0 0 119 35" fill="none" xmlns="http://www.w3.org/2000/svg">
<path d="M16.35 9.58527V18.7463H7.57234V17.8012V15.2054V8.38816C4.99783 7.98493 2.46952 7.53968 0 7.05664V34.4852H7.57234V25.3073H16.35V34.4684H23.9224V10.3413C21.3605 10.1271 18.8364 9.8751 16.35 9.58527Z" fill="black"/>
<path d="M79.8266 21.716C79.4948 23.1945 79.1588 24.673 78.827 26.1516L78.7262 26.1474C77.7309 21.8924 75.9627 14.2183 74.8792 9.55585C73.0354 9.76587 71.1749 9.95908 69.2934 10.1313C68.4828 13.647 67.143 19.3553 66.2695 23.0811C66.2359 23.2281 66.1981 23.3793 66.1645 23.5263C66.1603 23.5431 66.1561 23.5599 66.1519 23.5767C66.0973 23.8078 66.0469 24.0304 65.9923 24.253C65.8411 24.9041 65.6815 25.5551 65.5261 26.2062C65.4883 26.1978 65.4505 26.1894 65.4127 26.181C64.3711 21.5774 63.2204 16.4949 62.1872 11.9081H62.1914C62.099 11.4922 62.0066 11.0932 61.9184 10.7026C59.4279 10.858 56.9164 10.9798 54.3755 11.068C56.3872 18.1036 59.1045 27.6301 61.0575 34.4851C63.443 34.4767 66.7693 34.4599 69.1548 34.4809C69.7302 32.2589 70.3979 29.6337 70.9775 27.4117C71.3345 26.0424 71.6999 24.6772 72.0653 23.3121C72.0989 23.3163 72.1283 23.3205 72.1619 23.3205C73.111 27.0421 74.056 30.7678 75.0094 34.4977H83.0563C85.0512 27.5629 88.8521 14.6215 91.0108 7.14062C88.3103 7.64467 85.551 8.10671 82.7413 8.52255C81.8887 12.3743 80.3558 19.3595 79.8266 21.716Z" fill="black"/>
<path d="M66.2739 23.0852C66.2403 23.2364 66.2025 23.3834 66.1689 23.5304C66.2025 23.3834 66.2403 23.2322 66.2739 23.0852Z" fill="black"/>
<path d="M66.1601 23.5767C66.1055 23.8119 66.0509 24.0387 66.0005 24.2529C66.0509 24.0345 66.1055 23.8077 66.1601 23.5767Z" fill="black"/>
<path d="M62.1914 11.9082C63.2288 16.495 64.3753 21.5775 65.4169 26.1811C64.5013 22.1109 63.1994 16.3564 62.1914 11.9082Z" fill="black"/>
<path d="M44.506 11.2234V14.3905C44.3758 14.298 44.3212 14.2728 44.2792 14.2308C40.5539 10.3413 33.7502 10.7823 30.2055 14.9827C28.2274 17.3265 27.3832 20.0736 27.3538 23.0895C27.3244 26.2145 28.1434 29.0708 30.1803 31.5112C33.746 35.7746 40.5077 36.2367 44.2792 32.3093C44.3254 32.2589 44.3884 32.2253 44.548 32.1035V34.5019H51.7466V11.1436C51.1502 11.1562 50.5496 11.173 49.9532 11.1814C48.1305 11.215 46.3119 11.2276 44.506 11.2234ZM40.8605 28.4491C38.265 29.096 35.7913 27.7687 34.9429 25.2232C34.4011 23.6061 34.4809 22.0016 35.2915 20.4768C36.2743 18.6286 38.2482 17.6205 40.2347 17.9272C42.3137 18.2506 43.9684 19.7963 44.3758 21.8251C44.4724 22.2956 44.5102 22.7786 44.5732 23.2575C44.527 25.7819 43.0193 27.9115 40.8605 28.4491Z" fill="black"/>
<path d="M92.8884 6.78353L99.6585 19.0571L91.0908 34.5901L99.0202 34.6321L103.636 26.2649L108.251 34.6321L116.181 34.5901L100.003 5.25879C97.6804 5.80064 95.3075 6.30888 92.8884 6.78353Z" fill="#0148FF"/>
<path d="M118.121 0C115.047 1.0921 111.826 2.11699 108.474 3.07048L104.724 9.8709L108.701 17.083L118.121 0Z" fill="#0148FF"/>
</svg>
