<svg width="24" height="24" viewBox="0 0 24 24" fill="none" xmlns="http://www.w3.org/2000/svg">
<path d="M17.14 21.25H6.85999C4.58999 21.25 2.75 19.41 2.75 17.14V6.86C2.75 4.59 4.58999 2.75 6.85999 2.75H17.14C19.41 2.75 21.25 4.59 21.25 6.86V17.14C21.25 19.41 19.41 21.25 17.14 21.25Z" stroke="white" stroke-width="1.5" stroke-linecap="round" stroke-linejoin="round"/>
<path d="M12.0002 15.57C13.9718 15.57 15.5702 13.9716 15.5702 12C15.5702 10.0283 13.9718 8.42999 12.0002 8.42999C10.0285 8.42999 8.43018 10.0283 8.43018 12C8.43018 13.9716 10.0285 15.57 12.0002 15.57Z" stroke="white" stroke-width="1.5" stroke-linecap="round" stroke-linejoin="round"/>
<path d="M17.1501 7.91998C17.719 7.91998 18.1801 7.45884 18.1801 6.88998C18.1801 6.32113 17.719 5.85999 17.1501 5.85999C16.5813 5.85999 16.1201 6.32113 16.1201 6.88998C16.1201 7.45884 16.5813 7.91998 17.1501 7.91998Z" fill="white"/>
</svg>
