<svg width="88" height="27" viewBox="0 0 88 27" fill="none" xmlns="http://www.w3.org/2000/svg">
<path d="M12.164 7.13121V13.9468H5.63363V13.2437V11.3124V6.24059C3.71826 5.94059 1.83726 5.60934 0 5.24997V25.6561H5.63363V18.828H12.164V25.6436H17.7977V7.69371C15.8917 7.53433 14.0138 7.34683 12.164 7.13121Z" fill="white"/>
<path d="M59.3891 16.1561C59.1423 17.2561 58.8923 18.3561 58.6455 19.4561L58.5705 19.453C57.8299 16.2874 56.5145 10.578 55.7083 7.1093C54.3366 7.26555 52.9525 7.4093 51.5526 7.53743C50.9496 10.153 49.9528 14.3999 49.3029 17.1717C49.2779 17.2811 49.2498 17.3936 49.2248 17.503C49.2217 17.5155 49.2186 17.528 49.2154 17.5405C49.1748 17.7124 49.1373 17.878 49.0967 18.0436C48.9842 18.528 48.8655 19.0124 48.7499 19.4967C48.7218 19.4905 48.6936 19.4842 48.6655 19.478C47.8906 16.053 47.0345 12.2718 46.2658 8.85929H46.269C46.2002 8.54992 46.1315 8.25305 46.0659 7.96242C44.213 8.07805 42.3445 8.16867 40.4541 8.2343C41.9508 13.4686 43.9724 20.5561 45.4253 25.6561C47.2001 25.6498 49.6748 25.6373 51.4495 25.6529C51.8776 23.9998 52.3744 22.0467 52.8056 20.3936C53.0712 19.3749 53.343 18.3592 53.6149 17.3436C53.6399 17.3467 53.6617 17.3499 53.6867 17.3499C54.3929 20.1186 55.0959 22.8905 55.8052 25.6654H61.7919C63.2761 20.5061 66.1038 10.878 67.7099 5.31244C65.7008 5.68744 63.6479 6.03119 61.5576 6.34056C60.9233 9.20617 59.7828 14.403 59.3891 16.1561Z" fill="white"/>
<path d="M49.3061 17.1748C49.2811 17.2873 49.253 17.3967 49.228 17.5061C49.253 17.3967 49.2811 17.2842 49.3061 17.1748Z" fill="black"/>
<path d="M49.2218 17.5404C49.1811 17.7154 49.1405 17.8842 49.103 18.0436C49.1405 17.8811 49.1811 17.7123 49.2218 17.5404Z" fill="black"/>
<path d="M46.269 8.85941C47.0408 12.2719 47.8938 16.0531 48.6687 19.4781C47.9876 16.45 47.0189 12.1688 46.269 8.85941Z" fill="black"/>
<path d="M33.1115 8.3499V10.7061C33.0146 10.6374 32.974 10.6186 32.9428 10.5874C30.1712 7.69366 25.1094 8.02178 22.4723 11.1468C21.0006 12.8905 20.3725 14.9342 20.3507 17.178C20.3288 19.503 20.9381 21.628 22.4535 23.4436C25.1063 26.6154 30.1369 26.9592 32.9428 24.0373C32.9771 23.9998 33.024 23.9748 33.1427 23.8842V25.6686H38.4983V8.29053C38.0546 8.2999 37.6078 8.3124 37.1641 8.31865C35.808 8.34365 34.4551 8.35303 33.1115 8.3499ZM30.3993 21.1655C28.4683 21.6467 26.628 20.6592 25.9968 18.7655C25.5937 17.5623 25.6531 16.3686 26.2561 15.2342C26.9873 13.8592 28.4558 13.1092 29.9338 13.3374C31.4804 13.578 32.7115 14.728 33.0146 16.2374C33.0865 16.5874 33.1146 16.9467 33.1615 17.303C33.1271 19.1811 32.0054 20.7655 30.3993 21.1655Z" fill="white"/>
<path d="M69.1064 5.04678L74.1432 14.178L67.769 25.7342L73.6683 25.7654L77.1022 19.5404L80.5361 25.7654L86.4353 25.7342L74.3994 3.91241C72.6715 4.31554 70.9061 4.69366 69.1064 5.04678Z" fill="#0148FF"/>
<path d="M87.8791 0C85.5919 0.812495 83.1953 1.57499 80.7019 2.28436L77.9116 7.34371L80.8706 12.7093L87.8791 0Z" fill="#0148FF"/>
</svg>
