<svg width="26" height="26" viewBox="0 0 26 26" fill="none" xmlns="http://www.w3.org/2000/svg">
<path d="M12.8582 22.8844V15.249H10.2305V12.309H12.8582V10.1551C12.8582 8.94898 13.1597 8.04437 13.8489 7.35514C14.5382 6.66591 15.4428 6.32129 16.6059 6.32129C17.4674 6.32129 18.2428 6.36437 18.8459 6.45052V9.03514H17.2951C16.7351 9.03514 16.3474 9.16437 16.132 9.42283C15.9597 9.68129 15.8735 10.0259 15.8735 10.4567V12.309H18.8566L18.4689 15.249H15.8843V22.8844" stroke="#0148FF" stroke-width="1.5" stroke-linecap="round" stroke-linejoin="round"/>
<path d="M18.4583 22.884H7.38758C4.94296 22.884 2.96143 20.9025 2.96143 18.4579V7.38709C2.96143 4.94248 4.94296 2.96094 7.38758 2.96094H18.4583C20.903 2.96094 22.8845 4.94248 22.8845 7.38709V18.4579C22.8845 20.9025 20.903 22.884 18.4583 22.884Z" stroke="#0148FF" stroke-width="1.5" stroke-linecap="round" stroke-linejoin="round"/>
</svg>
