<svg width="26" height="26" viewBox="0 0 26 26" fill="none" xmlns="http://www.w3.org/2000/svg">
<path d="M18.6127 22.884H7.54186C5.09725 22.884 3.11572 20.9025 3.11572 18.4579V7.38709C3.11572 4.94248 5.09725 2.96094 7.54186 2.96094H18.6127C21.0573 2.96094 23.0388 4.94248 23.0388 7.38709V18.4579C23.0388 20.9025 21.0573 22.884 18.6127 22.884Z" stroke="#0148FF" stroke-width="1.5" stroke-linecap="round" stroke-linejoin="round"/>
<path d="M13.0775 16.7664C15.2009 16.7664 16.9222 15.0451 16.9222 12.9218C16.9222 10.7984 15.2009 9.07715 13.0775 9.07715C10.9542 9.07715 9.23291 10.7984 9.23291 12.9218C9.23291 15.0451 10.9542 16.7664 13.0775 16.7664Z" stroke="#0148FF" stroke-width="1.5" stroke-linecap="round" stroke-linejoin="round"/>
<path d="M18.6234 8.52901C19.236 8.52901 19.7326 8.03239 19.7326 7.41978C19.7326 6.80717 19.236 6.31055 18.6234 6.31055C18.0108 6.31055 17.5142 6.80717 17.5142 7.41978C17.5142 8.03239 18.0108 8.52901 18.6234 8.52901Z" fill="#0148FF"/>
</svg>
