<svg width="26" height="26" viewBox="0 0 26 26" fill="none" xmlns="http://www.w3.org/2000/svg">
<path d="M16.3384 17.0687C16.3384 16.2287 16.3384 15.3887 16.3384 14.538C16.3384 13.698 16.1446 13.3318 15.8323 13.0518C15.4553 12.718 14.96 12.6533 14.68 12.6426C14.4 12.6533 13.9046 12.718 13.5276 13.0518C13.2153 13.3318 13.0215 13.7087 13.0215 14.538C13.0215 15.378 13.0215 16.218 13.0215 17.0687" stroke="#0148FF" stroke-width="1.5" stroke-linecap="round" stroke-linejoin="round"/>
<path d="M9.68345 9.87471C9.0696 9.87471 8.57422 9.37933 8.57422 8.76548C8.57422 8.15163 9.06959 7.65625 9.67267 7.65625H9.68345C10.2973 7.65625 10.7927 8.15163 10.7927 8.76548C10.7927 9.37933 10.2973 9.87471 9.68345 9.87471Z" fill="#0148FF"/>
<path d="M9.66162 17.0686V11.5439" stroke="#0148FF" stroke-width="1.5" stroke-linecap="round" stroke-linejoin="round"/>
<path d="M18.5355 22.884H7.46471C5.0201 22.884 3.03857 20.9025 3.03857 18.4579V7.38709C3.03857 4.94248 5.0201 2.96094 7.46471 2.96094H18.5355C20.9801 2.96094 22.9616 4.94248 22.9616 7.38709V18.4579C22.9616 20.9025 20.9801 22.884 18.5355 22.884Z" stroke="#0148FF" stroke-width="1.5" stroke-linecap="round" stroke-linejoin="round"/>
</svg>
