<svg width="221" height="42" viewBox="0 0 221 42" fill="none" xmlns="http://www.w3.org/2000/svg">
<path d="M19.983 23.1049L14.2941 6.4007H13.945L8.06411 23.1049L1.58984 24.6576L9.57361 2.39693C9.92262 1.42869 10.8388 0.783203 11.8597 0.783203H16.4143C17.4265 0.783203 18.3339 1.41997 18.6917 2.37076L27.0332 24.7971L19.983 23.1049Z" fill="#EB2127"/>
<path d="M14.041 14.2949L16.6238 25.1461L27.4258 27.7368L16.6238 30.3275L14.041 41.1699L11.4583 30.3275L0.65625 27.7368L11.4583 25.1461L14.041 14.2949Z" fill="#EB2127"/>
<path d="M44.2919 24.5612H29.5372V19.6241H44.2919C45.4088 19.6241 46.325 18.7082 46.325 17.5917C46.325 16.4665 45.4175 15.5506 44.2919 15.5506H35.5054C31.675 15.5506 28.5513 12.4191 28.5513 8.5723V8.35423C28.5513 4.50747 31.6662 1.37598 35.5054 1.37598H50.2601V6.31309H35.5054C34.3886 6.31309 33.4724 7.22899 33.4724 8.35423V8.56358C33.4724 9.68882 34.3798 10.6047 35.5054 10.6047H44.2919C48.1224 10.6047 51.2461 13.7362 51.2461 17.583C51.2461 21.4297 48.1224 24.5612 44.2919 24.5612Z" fill="#EB2127"/>
<path d="M76.0526 1.37598H54.6841V6.32182H62.4148V24.8404H68.3219V6.32182H76.0526V1.37598Z" fill="#EB2127"/>
<path d="M83.1814 7.57827C83.1814 6.75832 83.8445 6.09539 84.656 6.09539H92.5874C94.2016 6.09539 95.493 7.49104 95.3446 9.13965C95.2137 10.5789 93.9486 11.6518 92.5089 11.6518H83.1814V7.57827ZM100.44 24.6575L93.9922 16.4668C97.5871 15.7952 100.309 12.6201 100.274 8.81691C100.24 4.60378 96.6185 1.16699 92.4216 1.16699H83.0418C80.4067 1.16699 78.2603 3.31281 78.2603 5.96454V24.6314H83.1814V16.6064H84.3331C86.5756 16.6064 88.6959 17.6095 90.1268 19.3366L94.5419 24.6663L100.44 24.6575Z" fill="#EB2127"/>
<path d="M122.062 25.0586L115.404 6.56619H115.308L108.659 25.0586H102.647L110.745 2.52752C111.102 1.54184 112.036 0.878906 113.083 0.878906H117.655C118.694 0.878906 119.618 1.5244 119.976 2.50135L128.379 25.0586H122.062Z" fill="#EB2127"/>
<path d="M142.122 13.6142V18.5252C142.122 20.7669 140.307 22.59 138.073 22.59C135.839 22.59 134.025 20.7669 134.025 18.5252V9.54939H138.073C140.307 9.54939 142.122 11.3725 142.122 13.6142ZM138.073 6.33939H134.025V0.878906H130.822V18.5252C130.822 22.5377 134.077 25.8 138.073 25.8C142.069 25.8 145.324 22.5377 145.324 18.5252V13.6142C145.315 9.60173 142.069 6.33939 138.073 6.33939Z" fill="black"/>
<path d="M158.621 13.3618V15.2198H150.524V13.3618C150.524 11.12 152.339 9.29698 154.573 9.29698C156.806 9.29698 158.621 11.12 158.621 13.3618ZM158.961 20.122C158.29 21.6921 156.754 22.7127 155.044 22.7127H154.817C152.47 22.7127 150.55 20.7937 150.55 18.4385H161.823V13.3705C161.823 9.35804 158.569 6.0957 154.573 6.0957C150.576 6.0957 147.322 9.35804 147.322 13.3705V18.4385H147.348C147.348 22.5644 150.699 25.9227 154.808 25.9314H155.035C158.019 25.9314 160.707 24.1519 161.893 21.4043L162.085 20.9507L159.145 19.6771L158.961 20.122Z" fill="black"/>
<path d="M167.469 18.0716V9.67151H169.938V6.46151H167.469V0.878906H164.266V6.46151H161.902V9.67151H164.266V18.0716C164.266 22.2673 167.669 25.6779 171.84 25.6779H172.329V22.4679H171.84C169.432 22.4679 167.469 20.4965 167.469 18.0716Z" fill="black"/>
<path d="M176.918 18.0716V9.67151H179.388V6.46151H176.918V0.878906H173.716V6.46151H171.352V9.67151H173.716V18.0716C173.716 22.2673 177.119 25.6779 181.29 25.6779H181.778V22.4679H181.29C178.89 22.4679 176.918 20.4965 176.918 18.0716Z" fill="black"/>
<path d="M217.492 13.3617V22.3375H213.443C211.209 22.3375 209.395 20.5145 209.395 18.2727V13.3617C209.395 11.12 211.209 9.29691 213.443 9.29691C215.677 9.29691 217.492 11.12 217.492 13.3617ZM213.443 6.08691C209.447 6.08691 206.192 9.34925 206.192 13.3617V18.2727C206.192 22.2852 209.447 25.5475 213.443 25.5475H217.492V25.5737C217.527 26.6989 217.108 27.7631 216.314 28.5744C215.494 29.4205 214.386 29.8828 213.199 29.8828H212.71V33.0928H213.199C215.258 33.0928 217.178 32.2815 218.609 30.8074C219.996 29.3768 220.729 27.5014 220.694 25.5388V13.353C220.694 9.35797 217.439 6.08691 213.443 6.08691Z" fill="black"/>
<path d="M196.961 5.7207C195.469 5.7207 194.038 6.17429 192.816 7.01168V6.46214H189.614V25.3122H192.816V13.0915C192.816 10.7974 194.675 8.9307 196.961 8.9307C199.247 8.9307 201.105 10.7974 201.105 13.0915V25.3122H204.307V13.0915C204.299 9.02665 201.009 5.7207 196.961 5.7207Z" fill="black"/>
<path d="M187.241 6.46191H184.039V25.3119H187.241V6.46191Z" fill="black"/>
<path d="M185.644 4.96119C186.769 4.96119 187.677 4.04529 187.677 2.92005C187.677 1.7948 186.769 0.878906 185.644 0.878906C184.518 0.878906 183.611 1.7948 183.611 2.92005C183.611 4.04529 184.518 4.96119 185.644 4.96119Z" fill="black"/>
</svg>
