<svg width="209" height="20" viewBox="0 0 209 20" fill="none" xmlns="http://www.w3.org/2000/svg">
<path d="M0 19.6203V0H7.19858C8.53785 0 9.70971 0.133927 10.6472 0.368299C11.5847 0.636153 12.3882 0.970971 12.9909 1.43972C13.5936 1.90846 14.0289 2.44417 14.2967 3.1138C14.5646 3.78344 14.6985 4.48656 14.6985 5.3236C14.6985 5.75886 14.6315 6.19412 14.4976 6.59591C14.3637 6.99769 14.1628 7.39947 13.8949 7.73428C13.6271 8.0691 13.2923 8.40392 12.857 8.70526C12.4217 9.00659 11.9195 9.24096 11.3503 9.47534C12.6561 9.77667 13.5936 10.3124 14.2297 11.0155C14.8324 11.7186 15.1672 12.6226 15.1672 13.7275C15.1672 14.5646 14.9998 15.3346 14.6985 16.0712C14.3637 16.7744 13.8949 17.4105 13.2923 17.9462C12.6561 18.4819 11.886 18.8837 10.982 19.185C10.078 19.4864 9.00659 19.6203 7.83473 19.6203H0ZM4.55352 8.23651H6.93072C7.43295 8.23651 7.90169 8.20303 8.30347 8.13607C8.70526 8.0691 9.04007 7.93518 9.34141 7.76777C9.60926 7.60036 9.84364 7.3325 9.97756 7.03117C10.1115 6.72983 10.2119 6.32805 10.2119 5.85931C10.2119 5.39056 10.145 4.98878 10.0445 4.68745C9.94408 4.38611 9.74319 4.11826 9.50882 3.95085C9.27445 3.74996 8.97311 3.61603 8.57133 3.54907C8.20303 3.4821 7.76777 3.41514 7.23206 3.41514H4.55352V8.23651ZM4.55352 11.2834V16.1717H7.76777C8.37044 16.1717 8.87266 16.1047 9.24096 15.9373C9.60926 15.7699 9.9106 15.6025 10.145 15.3346C10.3459 15.1003 10.5133 14.8324 10.5802 14.4976C10.6472 14.1963 10.7142 13.8949 10.7142 13.5601C10.7142 13.1918 10.6807 12.8905 10.5802 12.5891C10.4798 12.2878 10.3124 12.0534 10.1115 11.8525C9.87712 11.6517 9.57578 11.5177 9.20748 11.3838C8.83918 11.2834 8.37044 11.2164 7.76777 11.2164H4.55352V11.2834Z" fill="#1E1934"/>
<path d="M30.6358 0V3.4821H22.6002V8.0691H28.7608V11.4173H22.6002V16.0712H30.6358V19.5533H18.0132V0H30.6358Z" fill="#1E1934"/>
<path d="M47.5439 0V3.61603H42.0194V19.6203H37.4659V3.61603H31.9414V0H47.5439Z" fill="#1E1934"/>
<path d="M63.9165 15.6358C64.0505 15.6358 64.1844 15.7028 64.2848 15.8032L65.3228 16.9081C64.5192 17.8122 63.5817 18.5488 62.4433 19.051C61.305 19.5532 59.9657 19.8211 58.3586 19.8211C56.9858 19.8211 55.7135 19.5867 54.5751 19.0845C53.4368 18.6157 52.4658 17.9461 51.6957 17.0756C50.8921 16.205 50.2895 15.1671 49.8542 13.9618C49.4189 12.7564 49.1846 11.4171 49.1846 9.97742C49.1846 8.53771 49.4189 7.19844 49.8542 5.9931C50.3229 4.78775 50.9591 3.74982 51.7961 2.87929C52.6332 2.00877 53.6042 1.33913 54.776 0.870388C55.9479 0.401643 57.2202 0.133789 58.6264 0.133789C59.9992 0.133789 61.2045 0.368161 62.2759 0.803424C63.3139 1.23869 64.2514 1.84136 65.0549 2.57796L64.1844 3.7833C64.1174 3.88375 64.0505 3.95071 63.9835 4.01767C63.8831 4.08464 63.7826 4.11812 63.6487 4.11812C63.4813 4.11812 63.2804 4.01767 63.046 3.85026C62.8116 3.68285 62.5103 3.48196 62.142 3.28107C61.7737 3.08018 61.305 2.87929 60.7358 2.71188C60.1666 2.54448 59.4635 2.44403 58.6599 2.44403C57.6555 2.44403 56.7514 2.61144 55.9144 2.94626C55.0774 3.28107 54.3742 3.7833 53.7716 4.45294C53.1689 5.12257 52.7002 5.89265 52.3653 6.86362C52.0305 7.80111 51.8631 8.87253 51.8631 10.0444C51.8631 11.2497 52.0305 12.3211 52.3653 13.2586C52.7002 14.1961 53.1689 14.9997 53.7716 15.6358C54.3742 16.272 55.0774 16.7742 55.8809 17.109C56.6845 17.4439 57.555 17.6113 58.526 17.6113C59.0952 17.6113 59.6309 17.5778 60.0661 17.5108C60.5349 17.4439 60.9701 17.3434 61.3384 17.2095C61.7402 17.0756 62.1085 16.8747 62.4433 16.6738C62.7782 16.4394 63.113 16.205 63.4478 15.8702C63.6152 15.7028 63.7826 15.6358 63.9165 15.6358Z" fill="#1E1934"/>
<path d="M85.8135 9.97746C85.8135 11.4172 85.5792 12.7564 85.1439 13.9618C84.6751 15.1671 84.039 16.2051 83.202 17.0756C82.3649 17.9461 81.3605 18.6158 80.1886 19.0845C79.0167 19.5532 77.7109 19.8211 76.3047 19.8211C74.8985 19.8211 73.5927 19.5867 72.4208 19.0845C71.249 18.6158 70.2445 17.9461 69.4075 17.0756C68.5704 16.2051 67.9343 15.1671 67.4655 13.9618C66.9968 12.7564 66.7959 11.4172 66.7959 9.97746C66.7959 8.53774 67.0303 7.19847 67.4655 5.99313C67.9343 4.78779 68.5704 3.74985 69.4075 2.87933C70.2445 2.0088 71.249 1.33917 72.4208 0.836941C73.5927 0.368196 74.865 0.100342 76.3047 0.100342C77.7109 0.100342 79.0167 0.334714 80.1886 0.836941C81.3605 1.30569 82.3649 2.0088 83.202 2.87933C84.039 3.74985 84.6751 4.78779 85.1439 5.99313C85.5792 7.19847 85.8135 8.53774 85.8135 9.97746ZM83.135 9.97746C83.135 8.8056 82.9676 7.73418 82.6662 6.79669C82.3314 5.8592 81.8962 5.05564 81.2935 4.41949C80.6908 3.78334 79.9877 3.28111 79.1507 2.91281C78.3136 2.57799 77.3761 2.3771 76.3382 2.3771C75.3003 2.3771 74.3628 2.54451 73.5257 2.91281C72.6887 3.24763 71.9521 3.74985 71.3494 4.41949C70.7467 5.05564 70.278 5.8592 69.9767 6.79669C69.6418 7.73418 69.5079 8.8056 69.5079 9.97746C69.5079 11.1493 69.6753 12.2207 69.9767 13.1582C70.3115 14.0957 70.7467 14.8993 71.3494 15.5354C71.9521 16.1716 72.6552 16.6738 73.5257 17.0421C74.3628 17.3769 75.3003 17.5443 76.3382 17.5443C77.3761 17.5443 78.3136 17.3769 79.1507 17.0421C79.9877 16.7073 80.7243 16.2051 81.2935 15.5354C81.8962 14.8993 82.3314 14.0957 82.6662 13.1582C82.9676 12.2207 83.135 11.1493 83.135 9.97746Z" fill="#1E1934"/>
<path d="M91.1709 0.334717C91.2378 0.334717 91.3383 0.368199 91.3718 0.401681C91.4387 0.435162 91.5057 0.468644 91.5727 0.535607C91.6396 0.602571 91.7066 0.669534 91.7736 0.769979L102.923 15.3011C102.889 15.0667 102.889 14.8323 102.889 14.6314C102.889 14.3971 102.856 14.1962 102.856 13.9953V0.334717H105.133V19.6202H103.827C103.626 19.6202 103.459 19.5867 103.325 19.5198C103.191 19.4528 103.057 19.3189 102.923 19.1515L91.7736 4.62038C91.807 4.85475 91.807 5.05564 91.807 5.29002C91.807 5.49091 91.807 5.6918 91.807 5.89269V19.6202H89.5303V0.334717H90.8695C91.0035 0.334717 91.1039 0.334717 91.1709 0.334717Z" fill="#1E1934"/>
<path d="M119.965 3.34807C119.898 3.482 119.798 3.58244 119.697 3.64941C119.597 3.71637 119.496 3.74985 119.362 3.74985C119.195 3.74985 119.028 3.68289 118.827 3.51548C118.626 3.34807 118.358 3.18066 118.057 3.01325C117.755 2.84585 117.387 2.64496 116.952 2.51103C116.516 2.34362 115.981 2.27666 115.378 2.27666C114.809 2.27666 114.273 2.34362 113.838 2.51103C113.403 2.67844 113.034 2.87933 112.733 3.14718C112.432 3.41504 112.197 3.71637 112.063 4.08467C111.896 4.45297 111.829 4.85475 111.829 5.25653C111.829 5.79224 111.963 6.2275 112.231 6.5958C112.499 6.9641 112.834 7.26544 113.269 7.49981C113.704 7.76766 114.206 7.96855 114.742 8.13596C115.278 8.30337 115.847 8.50426 116.45 8.70515C117.019 8.90604 117.588 9.14041 118.157 9.37479C118.693 9.60916 119.195 9.94398 119.63 10.3123C120.066 10.6806 120.4 11.1493 120.668 11.685C120.936 12.2207 121.07 12.8904 121.07 13.6939C121.07 14.531 120.936 15.3345 120.635 16.0711C120.333 16.8077 119.932 17.4439 119.362 18.0131C118.827 18.5488 118.124 18.984 117.32 19.3189C116.517 19.6202 115.613 19.7876 114.575 19.7876C113.302 19.7876 112.164 19.5532 111.159 19.118C110.121 18.6492 109.251 18.0466 108.548 17.2765L109.318 16.0377C109.385 15.9372 109.485 15.8702 109.586 15.8033C109.686 15.7363 109.787 15.7028 109.921 15.7028C110.021 15.7028 110.155 15.7363 110.322 15.8368C110.456 15.9372 110.624 16.0377 110.825 16.2051C111.025 16.339 111.226 16.5064 111.461 16.6738C111.695 16.8412 111.963 17.0086 112.298 17.1426C112.599 17.2765 112.967 17.4104 113.369 17.5109C113.771 17.6113 114.206 17.6448 114.708 17.6448C115.311 17.6448 115.88 17.5443 116.349 17.3769C116.818 17.2095 117.253 16.9751 117.588 16.6403C117.923 16.3055 118.191 15.9707 118.358 15.5354C118.525 15.1002 118.626 14.6314 118.626 14.0957C118.626 13.5265 118.492 13.0243 118.224 12.656C117.956 12.2877 117.621 11.9864 117.186 11.7185C116.751 11.4841 116.249 11.2498 115.713 11.0824C115.144 10.9149 114.608 10.7141 114.005 10.5466C113.436 10.3792 112.867 10.1449 112.298 9.91049C111.729 9.67612 111.26 9.3413 110.825 8.97301C110.389 8.57122 110.055 8.10248 109.787 7.53329C109.519 6.9641 109.385 6.2275 109.385 5.39046C109.385 4.72082 109.519 4.05119 109.787 3.41504C110.055 2.77888 110.423 2.20969 110.959 1.70747C111.461 1.20524 112.097 0.803459 112.834 0.535605C113.57 0.234269 114.407 0.100342 115.378 0.100342C116.45 0.100342 117.421 0.267751 118.325 0.602568C119.195 0.937386 119.999 1.43961 120.668 2.07577L119.965 3.34807Z" fill="#1E1934"/>
<path d="M137.744 0.334717V2.54451H131.516V19.6202H128.905V2.54451H122.644V0.334717H137.744Z" fill="#1E1934"/>
<path d="M143.168 11.5511V19.5867H140.557V0.334717H146.014C147.22 0.334717 148.291 0.468644 149.161 0.703016C150.065 0.937389 150.769 1.30569 151.371 1.77443C151.94 2.24318 152.376 2.81237 152.644 3.44852C152.911 4.11816 153.045 4.85475 153.045 5.65832C153.045 6.32795 152.945 6.9641 152.711 7.56678C152.51 8.16945 152.175 8.70516 151.773 9.1739C151.371 9.64265 150.869 10.0444 150.266 10.3792C149.664 10.7141 149.028 10.9484 148.257 11.1158C148.592 11.3167 148.894 11.6181 149.128 11.9529L154.753 19.6202H152.443C151.974 19.6202 151.606 19.4528 151.405 19.0845L146.382 12.1873C146.215 11.9864 146.081 11.819 145.88 11.7185C145.713 11.6181 145.445 11.5846 145.077 11.5846H143.168V11.5511ZM143.168 9.67613H145.914C146.684 9.67613 147.32 9.57568 147.923 9.40827C148.492 9.24086 148.994 8.97301 149.362 8.63819C149.764 8.30337 150.032 7.90159 150.233 7.43285C150.434 6.9641 150.534 6.46188 150.534 5.89269C150.534 4.75431 150.166 3.88378 149.396 3.28111C148.626 2.71192 147.521 2.41059 146.014 2.41059H143.168V9.67613Z" fill="#1E1934"/>
<path d="M164.898 17.5443C165.701 17.5443 166.404 17.4104 167.041 17.1426C167.677 16.8747 168.212 16.5064 168.648 16.0042C169.083 15.5354 169.418 14.9328 169.652 14.2631C169.887 13.5935 169.987 12.8569 169.987 12.0533V0.334717H172.599V12.0533C172.599 13.1582 172.431 14.1962 172.063 15.1337C171.695 16.0711 171.192 16.9082 170.556 17.6113C169.887 18.3144 169.083 18.8501 168.146 19.2519C167.208 19.6537 166.137 19.8546 164.931 19.8546C163.759 19.8546 162.688 19.6537 161.717 19.2519C160.78 18.8501 159.942 18.3144 159.306 17.6113C158.637 16.9082 158.134 16.1046 157.766 15.1337C157.398 14.1962 157.23 13.1582 157.23 12.0533V0.334717H159.842V12.0533C159.842 12.8569 159.942 13.5935 160.177 14.2631C160.411 14.9328 160.746 15.502 161.181 16.0042C161.617 16.4729 162.152 16.8747 162.788 17.1426C163.358 17.4104 164.094 17.5443 164.898 17.5443Z" fill="#1E1934"/>
<path d="M190.779 15.6358C190.913 15.6358 191.047 15.7028 191.147 15.8032L192.185 16.9081C191.382 17.8122 190.444 18.5488 189.306 19.051C188.167 19.5532 186.828 19.8211 185.221 19.8211C183.848 19.8211 182.576 19.5867 181.437 19.0845C180.299 18.6157 179.328 17.9461 178.558 17.0756C177.754 16.205 177.152 15.1671 176.717 13.9618C176.281 12.7564 176.047 11.4171 176.047 9.97742C176.047 8.53771 176.281 7.19844 176.717 5.9931C177.185 4.78775 177.821 3.74982 178.658 2.87929C179.495 2.00877 180.466 1.33913 181.638 0.870388C182.81 0.401643 184.082 0.133789 185.489 0.133789C186.861 0.133789 188.067 0.368161 189.138 0.803424C190.176 1.23869 191.114 1.84136 191.917 2.57796L191.047 3.7833C190.98 3.88375 190.913 3.95071 190.846 4.01767C190.745 4.08464 190.645 4.11812 190.511 4.11812C190.344 4.11812 190.143 4.01767 189.908 3.85026C189.674 3.68285 189.373 3.48196 189.004 3.28107C188.636 3.08018 188.167 2.87929 187.598 2.71188C187.029 2.54448 186.326 2.44403 185.522 2.44403C184.518 2.44403 183.614 2.61144 182.777 2.94626C181.94 3.28107 181.237 3.7833 180.634 4.45294C180.031 5.12257 179.562 5.89265 179.228 6.86362C178.893 7.80111 178.725 8.87253 178.725 10.0444C178.725 11.2497 178.893 12.3211 179.228 13.2586C179.562 14.1961 180.031 14.9997 180.634 15.6358C181.237 16.272 181.94 16.7742 182.743 17.109C183.547 17.4439 184.417 17.6113 185.388 17.6113C185.957 17.6113 186.493 17.5778 186.928 17.5108C187.397 17.4439 187.832 17.3434 188.201 17.2095C188.603 17.0756 188.971 16.8747 189.306 16.6738C189.64 16.4394 189.975 16.205 190.31 15.8702C190.478 15.7028 190.611 15.6358 190.779 15.6358Z" fill="#1E1934"/>
<path d="M208.257 0.334717V2.54451H202.029V19.6202H199.417V2.54451H193.156V0.334717H208.257Z" fill="#1E1934"/>
</svg>
