<svg width="164" height="38" viewBox="0 0 164 38" fill="none" xmlns="http://www.w3.org/2000/svg">
<path d="M15.6606 16.2995C15.6606 16.2995 19.8702 14.3679 22.7782 12.9751C25.6862 11.5823 28.818 9.24407 29.001 6.10265C29.1332 3.94738 26.6319 2.10726 23.0934 1.25328C19.4228 0.358642 14.4608 0.582302 13.1593 1.8836C11.685 3.36789 11.5935 5.16734 12.8035 8.49175C14.0134 11.806 15.6606 16.2995 15.6606 16.2995Z" fill="#6DD338"/>
<path d="M16.4741 18.5459C16.4741 18.5459 19.25 26.008 20.2363 28.7936C21.2226 31.5792 22.8291 36.4286 27.486 34.2326C32.1429 32.0265 36.7897 17.2954 34.4205 13.8388C31.8175 10.0061 19.5143 17.3767 16.4741 18.5459Z" fill="#6DD338"/>
<path d="M14.3186 19.5732C14.3186 19.5732 15.8845 23.7923 16.9623 26.8015C18.0401 29.8108 18.8433 34.7517 17.186 36.7748C16.0675 38.1676 12.5291 37.4458 10.5666 36.236C8.19751 34.8025 4.26251 32.3321 3.72361 29.272C3.0932 25.8561 5.55384 23.6601 8.73641 22.1758C11.9495 20.6509 14.3186 19.5732 14.3186 19.5732Z" fill="#6DD338"/>
<path d="M13.4746 17.286C13.4746 17.286 11.868 12.8839 10.6987 9.6917C9.58025 6.55029 7.69918 4.43568 4.65896 6.99761C1.93395 9.33588 1.12051 14.1852 0.988331 16.6557C0.805308 20.0716 2.59487 22.359 6.2655 20.6104C9.98696 18.9431 13.4746 17.286 13.4746 17.286Z" fill="#6DD338"/>
<path d="M55.397 26.0897C54.909 26.537 54.1464 26.7607 53.2007 26.7607H48.9912V21.647H53.1092C54.0447 21.647 54.7666 21.8706 55.3055 22.318C55.8444 22.7653 56.1088 23.3956 56.1088 24.2496C56.1596 25.0527 55.8851 25.6424 55.397 26.0897ZM49.0014 13.646H52.8449C53.7396 13.646 54.4514 13.8697 54.9496 14.2763C55.4377 14.683 55.6614 15.2625 55.6614 16.025C55.6614 16.7874 55.4377 17.3771 54.9496 17.7736C54.4616 18.1802 53.7396 18.4039 52.8449 18.4039H49.0014V13.646ZM56.8714 19.939C57.7255 19.5832 58.4372 19.085 58.9761 18.3632C59.6065 17.5499 59.9116 16.5638 59.9116 15.3946C59.9116 14.4085 59.6472 13.5037 59.149 12.7006C58.6609 11.8872 57.8983 11.3078 56.912 10.8604C55.9257 10.4131 54.7666 10.1895 53.4244 10.1895H44.8325V30.1766H53.7803C55.1225 30.1766 56.2816 29.9529 57.3188 29.5056C58.305 29.0583 59.0676 28.3873 59.5964 27.574C60.1353 26.7607 60.3996 25.7745 60.3996 24.7477C60.3996 23.5379 60.0438 22.5009 59.3218 21.5555C58.6609 20.7422 57.8577 20.1627 56.8714 19.939Z" fill="black"/>
<path d="M86.45 10.4131H82.2404V14.2763H80.3594V17.7329H82.2404V25.195C82.2404 28.5194 83.9385 30.1867 87.3448 30.1867H89.9376V26.2828H88.0158C87.4363 26.2828 87.0296 26.1913 86.8059 25.9677C86.5822 25.744 86.45 25.3882 86.45 24.89V17.7837H89.9376V14.3271H86.45V10.4131Z" fill="black"/>
<path d="M101.346 14.0527C100.359 14.0527 99.424 14.2357 98.6208 14.6322C97.909 14.988 97.2786 15.4455 96.7905 16.025V14.2764H92.6318V30.1766H96.7905V21.4132C96.7905 20.2034 97.1057 19.2579 97.6853 18.6276C98.3157 17.9973 99.119 17.6415 100.187 17.6415C101.214 17.6415 102.068 17.9566 102.647 18.6276C103.227 19.2579 103.542 20.2034 103.542 21.4132V30.1766H107.701V20.8744C107.701 18.7191 107.121 17.0518 105.952 15.842C104.742 14.6831 103.227 14.0527 101.346 14.0527Z" fill="black"/>
<path d="M118.174 26.4049C115.896 26.4049 114.056 24.5648 114.056 22.2672C114.056 19.9798 115.886 18.1295 118.174 18.1295C120.452 18.1295 122.292 19.9696 122.292 22.2672C122.282 24.5648 120.452 26.4049 118.174 26.4049ZM118.174 14.002C113.659 14.002 109.989 17.6822 109.989 22.2266C109.989 26.7608 113.659 30.4512 118.174 30.4512C122.689 30.4512 126.359 26.7709 126.359 22.2266C126.308 17.6924 122.648 14.002 118.174 14.002Z" fill="black"/>
<path d="M148.729 14.0531C147.569 14.0531 146.492 14.3276 145.505 14.9071C144.57 15.4459 143.848 16.1169 143.36 16.9709C142.821 16.0762 142.109 15.3544 141.164 14.8563C140.177 14.3175 139.059 14.043 137.849 14.043C136.863 14.043 135.968 14.226 135.165 14.6225C134.453 14.9376 133.863 15.4358 133.375 15.9746V14.2666H129.216V30.1669H133.375V21.4034C133.375 20.1936 133.69 19.2888 134.27 18.6585C134.9 18.0282 135.703 17.713 136.771 17.713C137.798 17.713 138.652 18.0282 139.232 18.6585C139.811 19.2888 140.127 20.1835 140.127 21.4034V30.1669H144.285V21.4034C144.285 20.1936 144.6 19.2888 145.18 18.6585C145.81 18.0282 146.614 17.713 147.641 17.713C148.668 17.713 149.522 18.0282 150.101 18.6585C150.681 19.2888 150.996 20.1835 150.996 21.4034V30.1669H155.155V20.8646C155.155 18.7093 154.575 17.0421 153.365 15.8323C152.176 14.6326 150.65 14.0531 148.729 14.0531Z" fill="black"/>
<path d="M162.913 14.2764H158.754V30.1766H162.913V14.2764Z" fill="black"/>
<path d="M160.849 12.6088C161.561 12.6088 162.191 12.3852 162.639 11.887C163.127 11.4397 163.35 10.85 163.35 10.1384C163.35 9.41659 163.127 8.87777 162.639 8.38978C162.15 7.94246 161.561 7.66797 160.849 7.66797C160.137 7.66797 159.507 7.89163 159.059 8.38978C158.571 8.8371 158.348 9.42675 158.348 10.1384C158.348 10.8602 158.571 11.399 159.059 11.887C159.558 12.3852 160.137 12.6088 160.849 12.6088Z" fill="black"/>
<path d="M68.1882 18.3633C68.8187 17.7839 69.6219 17.5094 70.5574 17.5094C71.5437 17.5094 72.4384 17.8245 73.1095 18.404C73.7806 18.9835 74.1365 19.7053 74.1873 20.6508H67.0291C67.2121 19.6646 67.568 18.9022 68.1882 18.3633ZM73.6484 25.1036C73.018 26.3134 72.0419 26.9438 70.6082 26.9438C69.6219 26.9438 68.778 26.6286 68.1069 25.9983C67.4765 25.4188 67.0799 24.5648 66.9884 23.5279C66.9477 23.3042 66.9477 23.0805 66.9477 23.0805H78.4477C78.4884 22.7247 78.5392 22.3181 78.5392 21.9114C78.5392 20.3864 78.224 18.9937 77.5529 17.7737C76.8818 16.5639 75.9464 15.6591 74.7771 14.9881C73.5671 14.3578 72.2249 14.002 70.7506 14.002C69.1847 14.002 67.8019 14.3578 66.5919 14.9881C65.3819 15.6591 64.4464 16.6045 63.7754 17.8652C63.1043 19.1258 62.7891 20.5593 62.7891 22.1757C62.7891 23.7922 63.1449 25.2256 63.816 26.4863C64.4871 27.7469 65.4226 28.6924 66.6325 29.3634C67.8425 30.0343 69.2254 30.4003 70.7506 30.4003C72.6316 30.4003 74.2382 29.9022 75.5397 28.916C76.8412 27.9299 77.7359 26.6693 78.1833 25.1443L78.224 25.0122H73.7501L73.6484 25.1036Z" fill="black"/>
</svg>
