<svg width="147" height="38" viewBox="0 0 147 38" fill="none" xmlns="http://www.w3.org/2000/svg">
<path d="M96.8796 19.5042C95.9501 19.5042 95.2031 18.749 95.2031 17.8194V17.0227C95.2031 16.0931 95.9501 15.3379 96.8796 15.3379H107.022C107.951 15.3379 108.698 16.0931 108.698 17.0227V17.8194C108.698 18.749 107.951 19.5042 107.022 19.5042H104.299V30.8579C104.299 32.1028 103.295 33.107 102.067 33.107H101.859C100.623 33.107 99.6267 32.1028 99.6267 30.8579V19.5042H96.8796Z" fill="#FFB429"/>
<path d="M119.877 23.4623C118.865 23.4623 118.043 22.6407 118.043 21.6198C118.043 20.599 118.865 19.7773 119.877 19.7773H126.152C127.164 19.7773 127.986 20.599 127.986 21.6198C127.986 22.6407 127.164 23.4623 126.152 23.4623H124.873V31.2472C124.873 32.2763 124.043 33.1063 123.031 33.1063C122.01 33.1063 121.188 32.2763 121.188 31.2472V23.4623H119.877Z" fill="#FFB429"/>
<path d="M131.372 27.8778H133.231L132.301 25.8195L131.372 27.8778ZM128.036 33.1065C127.048 33.1065 126.384 32.0856 126.774 31.1727L130.716 22.0101C131.007 21.3378 131.662 20.9062 132.393 20.9062C133.131 20.9062 133.795 21.3544 134.078 22.0433L137.779 31.1063C138.169 32.0607 137.472 33.1148 136.443 33.1148C135.829 33.1148 135.273 32.7164 135.074 32.1354L134.418 30.2016H130.027L129.339 32.1852C129.139 32.733 128.617 33.1065 128.036 33.1065Z" fill="#FFB429"/>
<path d="M140.294 33.1065C139.913 33.1065 139.597 32.7911 139.597 32.401V22.5744C139.597 21.6532 140.344 20.9062 141.257 20.9062C142.17 20.9062 142.917 21.6532 142.917 22.5744V29.795H145.357C146.262 29.795 147 30.5336 147 31.4466C147 32.3595 146.262 33.0982 145.357 33.0982H140.294V33.1065Z" fill="#FFB429"/>
<path d="M90.7294 29.2716C90.4639 29.753 89.775 29.753 89.5094 29.2716L87.003 24.7567V31.7449C87.003 32.5001 86.3971 33.106 85.6502 33.106C84.9032 33.106 84.2974 32.5001 84.2974 31.7449V23.2379C84.2974 21.9515 85.3348 20.9058 86.6212 20.9058C87.4761 20.9058 88.2562 21.3705 88.6629 22.1258L90.1568 24.8895L91.6341 22.1258C92.0408 21.3705 92.8209 20.8975 93.6758 20.8975C94.9539 20.8975 95.9913 21.9432 95.9913 23.2296V31.7034C95.9913 32.4752 95.3688 33.0977 94.6053 33.0977C93.8417 33.0977 93.2193 32.4752 93.2193 31.7034V24.8231L90.7294 29.2716Z" fill="#FF5000"/>
<path fill-rule="evenodd" clip-rule="evenodd" d="M51.3572 26.9398H48.0042V29.1806H51.3572C51.9713 29.1806 52.4776 28.6744 52.4776 28.0602C52.4776 27.4378 51.9796 26.9398 51.3572 26.9398ZM48.0125 21.3211H51.3655C51.9796 21.3211 52.4859 21.8273 52.4859 22.4415C52.4859 23.0556 51.9879 23.5619 51.3655 23.5619H48.0125V21.3211ZM43.5474 17.6776C43.5474 17.2128 43.9208 16.8311 44.3856 16.8311H51.4567C52.2369 16.8311 52.9506 16.9472 53.6063 17.1796C54.262 17.3954 54.818 17.7025 55.2745 18.0843C55.7476 18.4743 56.1127 18.9474 56.37 19.5035C56.6439 20.0429 56.785 20.6322 56.785 21.2713C56.785 22.0265 56.5692 22.7237 56.1459 23.3378C55.7227 23.9437 55.1583 24.4334 54.4529 24.7985C55.2745 25.1388 55.9468 25.6451 56.4613 26.309C56.9759 26.9564 57.2415 27.7033 57.2415 28.5416C57.2415 29.2055 57.1004 29.8197 56.8265 30.3758C56.5692 30.9318 56.1957 31.4132 55.7061 31.8199C55.233 32.2266 54.6603 32.5419 53.9881 32.7743C53.3324 32.9901 52.6104 33.098 51.8136 33.098H44.3773C43.9125 33.098 43.5391 32.7245 43.5391 32.2514V17.6776H43.5474Z" fill="#FF5000"/>
<path fill-rule="evenodd" clip-rule="evenodd" d="M64.3873 29.9278C66.0305 29.9278 67.3668 28.5916 67.3668 26.9317C67.3668 25.2801 66.0305 23.9356 64.3873 23.9356C62.744 23.9356 61.4077 25.2718 61.4077 26.9317C61.4077 28.5916 62.744 29.9278 64.3873 29.9278ZM64.3873 32.9239C67.6738 32.9239 70.338 30.2431 70.338 26.94C70.338 23.6368 67.6738 20.9561 64.3873 20.9561C61.1007 20.9561 58.4365 23.6368 58.4365 26.94C58.4282 30.2431 61.1007 32.9239 64.3873 32.9239Z" fill="#FF5000"/>
<path fill-rule="evenodd" clip-rule="evenodd" d="M77.4092 29.9278C79.0525 29.9278 80.3887 28.5916 80.3887 26.9317C80.3887 25.2801 79.0525 23.9356 77.4092 23.9356C75.7659 23.9356 74.4297 25.2718 74.4297 26.9317C74.438 28.5916 75.7659 29.9278 77.4092 29.9278ZM77.4092 32.9239C80.6958 32.9239 83.3599 30.2431 83.3599 26.94C83.3599 23.6368 80.6958 20.9561 77.4092 20.9561C74.1226 20.9561 71.4585 23.6368 71.4585 26.94C71.4585 30.2431 74.1226 32.9239 77.4092 32.9239Z" fill="#FF5000"/>
<path fill-rule="evenodd" clip-rule="evenodd" d="M112.765 29.9278C114.408 29.9278 115.744 28.5916 115.744 26.9317C115.744 25.2801 114.408 23.9356 112.765 23.9356C111.121 23.9356 109.785 25.2718 109.785 26.9317C109.793 28.5916 111.121 29.9278 112.765 29.9278ZM112.765 32.9239C116.051 32.9239 118.715 30.2431 118.715 26.94C118.715 23.6368 116.051 20.9561 112.765 20.9561C109.478 20.9561 106.814 23.6368 106.814 26.94C106.814 30.2431 109.478 32.9239 112.765 32.9239Z" fill="#FFB429"/>
<path fill-rule="evenodd" clip-rule="evenodd" d="M18.7983 37.7874C12.5322 37.7874 7.44461 32.675 7.44461 26.3757C7.44461 20.0764 12.5239 14.9639 18.7983 14.9639C25.0644 14.9639 30.1519 20.0764 30.1519 26.3757C30.1436 32.675 25.0644 37.7874 18.7983 37.7874ZM18.7983 37.7874C29.1809 37.7874 37.5965 29.3303 37.5965 18.8979C37.5882 8.45715 29.1726 0 18.7983 0C8.41565 0 0 8.45715 0 18.8896C0 29.3303 8.41565 37.7874 18.7983 37.7874Z" fill="#FF5000"/>
<path fill-rule="evenodd" clip-rule="evenodd" d="M18.7986 37.7877C21.164 37.7877 23.0812 35.8622 23.0812 33.4886C23.0812 31.1149 21.164 29.1895 18.7986 29.1895C16.4333 29.1895 14.5161 31.1149 14.5161 33.4886C14.5161 35.8622 16.4333 37.7877 18.7986 37.7877C17.8691 37.7877 17.1221 37.0324 17.1221 36.1029C17.1221 35.1734 17.8691 34.4181 18.7986 34.4181C19.7199 34.4181 20.4751 35.1734 20.4751 36.1029C20.4668 37.0324 19.7199 37.7877 18.7986 37.7877Z" fill="#FFB429"/>
</svg>
