<svg width="96" height="40" viewBox="0 0 96 40" fill="none" xmlns="http://www.w3.org/2000/svg">
<path d="M7.91741 35.8193H5.32053V36.7674H6.89074V37.5843C6.52838 37.8365 6.05531 37.9273 5.5319 37.9273C4.35425 37.9273 3.58928 37.2111 3.58928 36.0109C3.58928 34.8409 4.30392 34.1147 5.44131 34.1147C6.05531 34.1147 6.6089 34.3265 6.99139 34.6694L7.70603 33.8726C7.15244 33.3683 6.41766 33.0557 5.44131 33.0557C3.58928 33.0557 2.41162 34.1954 2.41162 36.021C2.41162 37.8365 3.57921 38.9863 5.45138 38.9863C6.43779 38.9863 7.29335 38.7644 7.90734 38.2298V35.8193H7.91741ZM12.1751 38.8451H13.554L12.2053 37.0094C12.9401 36.7068 13.3427 36.0916 13.3427 35.1838C13.3427 33.8626 12.5475 33.1464 11.0377 33.1464H8.73271V38.8451H9.88017V37.2313H11.0478L12.1751 38.8451ZM10.8565 36.253H9.88017V34.1349H10.9572C11.7825 34.1349 12.165 34.5081 12.165 35.2242C12.165 35.8293 11.7523 36.253 10.8565 36.253ZM18.013 37.7659L18.4962 38.8451H19.7242L17.0266 33.1364H16.4026L13.7151 38.8451H14.933L15.4162 37.7659H18.013ZM15.7886 36.838L16.7045 34.6795L17.6305 36.838H15.7886ZM25.4212 33.1464H24.2939V36.6867L20.8716 33.1464H20.318V38.8451H21.4453V35.315L24.8575 38.8451H25.4212V33.1464ZM26.5082 33.1464V38.8451H28.783C30.6149 38.8451 31.551 37.7255 31.551 35.9201C31.551 34.0643 30.5143 33.1364 28.7327 33.1364H26.5082V33.1464ZM28.773 37.7961H27.6255V34.1954H28.7428C29.8298 34.1954 30.3935 34.8308 30.3935 35.9302C30.3834 37.1103 29.7694 37.7961 28.773 37.7961ZM39.4121 35.8193H36.8152V36.7674H38.3854V37.5843C38.0231 37.8365 37.55 37.9273 37.0266 37.9273C35.849 37.9273 35.0941 37.2111 35.0941 36.0109C35.0941 34.8409 35.8087 34.1147 36.9461 34.1147C37.5601 34.1147 38.1137 34.3265 38.4962 34.6694L39.2108 33.8726C38.6572 33.3683 37.9224 33.0557 36.9461 33.0557C35.0941 33.0557 33.9164 34.1954 33.9164 36.021C33.9164 37.8365 35.084 38.9863 36.9562 38.9863C37.9426 38.9863 38.7981 38.7644 39.4121 38.2298V35.8193ZM44.0221 37.7659L44.5052 38.8451H45.7332L43.0357 33.1364H42.4116L39.7242 38.8451H40.9421L41.4252 37.7659H44.0221ZM41.7976 36.838L42.7136 34.6795L43.6396 36.838H41.7976ZM52.165 33.1464H51.5712L49.236 36.4345L46.8907 33.1464H46.317V38.8451H47.4443V35.7083L49.0145 37.897H49.4474L51.0276 35.7083V38.8552H52.155V33.1464H52.165ZM53.2622 33.1464V38.8451H57.5903V37.8567H54.3895V36.5455H56.926V35.5873H54.3895V34.1248H57.4292V33.1364H53.2622V33.1464Z" fill="#606060"/>
<path d="M88.2798 8.57693L83.2169 22.3344L77.8923 8.57693H69.7695C69.7192 8.57693 69.6689 8.57693 69.6185 8.57693C67.4041 8.57693 64.8878 9.20227 63.2169 10.8463V0.316406H56.1007V14.5782V23.8271C56.2315 23.817 56.3724 23.807 56.5033 23.807C58.9794 23.807 60.9925 25.8746 60.9925 28.3457C60.9925 29.9696 60.147 31.3917 58.8787 32.1986H63.0458V30.2722C64.6764 32.2389 67.3135 32.7433 69.3669 32.7433C73.4736 32.7433 76.6442 30.9177 78.456 27.7809L79.9758 31.1496C78.8888 33.0358 77.1676 33.7115 75.1646 33.7115C75.0337 33.7115 74.9029 33.7115 74.772 33.7014H71.9738V39.1177C73.1012 39.4909 74.611 39.6623 75.9094 39.6623C79.8853 39.6623 83.9014 38.8252 86.8304 31.4825L96 8.57693H88.2798ZM55.6276 14.5782H40.9119V20.8316H49.3266V24.0591C47.6054 25.1888 45.6427 25.5317 43.2572 25.5317C37.3085 25.5317 33.5843 22.3445 33.5843 16.6862C33.5843 11.3607 37.0569 8.00202 42.4117 8.00202C45.5924 8.00202 48.4811 9.01063 50.3231 10.6042L54.9733 5.44015C52.0443 2.74716 47.9879 1.11321 42.2909 1.11321C33.2723 1.11321 26.9009 6.24704 25.995 14.5782H15.0438V20.8316H23.4585V24.0591C21.7373 25.1888 19.7745 25.5317 17.389 25.5317C11.4404 25.5317 7.71616 22.3445 7.71616 16.6862C7.71616 11.3607 11.1887 8.00202 16.5435 8.00202C19.7242 8.00202 22.613 9.01063 24.455 10.6042L29.1052 5.44015C26.1762 2.75724 22.1198 1.1233 16.4228 1.1233C6.66936 1.11321 0.0161133 7.11444 0.0161133 16.6761C0.0161133 26.1974 6.66936 32.1986 17.0065 32.1986C22.9451 32.1986 27.4645 30.3932 30.2325 27.7506C33.2018 30.5949 37.5501 32.1986 42.8747 32.1986C46.6593 32.1986 49.8601 31.4724 52.4066 30.252C52.1349 29.667 51.9839 29.0215 51.9839 28.3356C51.9839 26.157 53.5642 24.3113 55.6175 23.8876V14.5782H55.6276ZM67.4947 26.4092C65.693 26.4092 63.9819 25.6527 63.0559 23.8473V17.3922C63.8913 15.8389 65.7735 14.9614 67.6558 14.9614C70.6653 14.9614 72.7589 16.9282 72.7589 20.6702C72.769 24.2205 70.8062 26.4092 67.4947 26.4092Z" fill="#FF0055"/>
<path d="M56.5134 32.199C58.6071 32.199 60.3182 30.4843 60.3182 28.3461C60.3182 26.2481 58.6071 24.4932 56.5134 24.4932C54.4198 24.4932 52.6685 26.2481 52.6685 28.3461C52.6685 30.4843 54.4198 32.199 56.5134 32.199Z" fill="#FF0055"/>
<path d="M75.9294 33.7012H58.8887V39.6621H75.9294V33.7012Z" fill="#FF0055"/>
</svg>
