<svg width="137" height="29" viewBox="0 0 137 29" fill="none" xmlns="http://www.w3.org/2000/svg">
<g clip-path="url(#clip0_519_5799)">
<path d="M17.5002 28.4595C18.2102 27.8195 18.7102 27.0095 19.0502 26.0695C19.2102 25.6395 19.0302 25.4195 18.6202 25.5095C18.3402 25.5795 18.0602 25.6695 17.8002 25.7895C17.7202 25.8295 17.6402 25.8395 17.5502 25.8295C17.4702 25.8195 17.3802 25.7895 17.3102 25.7395C17.2702 25.7095 17.2202 25.6995 17.1702 25.6895C17.1202 25.6895 17.0702 25.6895 17.0202 25.7095C16.7802 25.8295 16.7502 25.8295 16.6402 25.5495C16.1302 24.3295 15.6102 23.1095 15.1102 21.8795C14.5902 20.5995 14.0702 19.3195 13.3302 18.1795C12.9602 17.6095 12.8902 16.9795 12.8702 16.3195C12.8502 15.5195 12.8602 14.7195 12.7802 13.9295C12.6702 12.8895 12.4902 11.8595 12.3402 10.8295C12.3302 10.7595 12.3302 10.6995 12.3202 10.6395L12.3802 10.5895L13.0002 11.2295C13.0302 11.2295 13.0502 11.2295 13.0602 11.2195C13.3202 10.9595 13.3202 10.9595 13.6202 11.1895C14.2302 11.6595 14.8502 12.1095 15.4402 12.5995C15.6902 12.8095 15.8802 13.0995 16.1002 13.3495C16.1502 13.4095 16.1802 13.5095 16.2402 13.5495C16.6102 13.8295 16.9902 14.0995 17.3902 14.3995V13.9295L17.9802 14.6295L18.0302 14.5995C18.0402 14.5295 18.0402 14.4595 18.0302 14.3895C17.9002 13.8395 17.6602 13.3795 17.1902 13.0695C16.9002 12.8795 16.6402 12.6195 16.4002 12.3495C15.8002 11.6795 15.2302 10.9795 14.6302 10.3195C14.4302 10.0995 14.1602 9.95953 13.9202 9.77953C13.8702 9.73953 13.8002 9.66953 13.8002 9.61953C13.8202 9.35953 13.6902 9.17953 13.5402 9.02953C13.1002 8.59953 12.8202 8.06953 12.5802 7.48953C12.4602 7.19953 12.2902 6.93953 12.1202 6.67953C11.9102 6.35953 11.8802 6.08953 12.1602 5.85953C12.5302 5.55953 12.6902 5.20953 12.7402 4.71953C12.7802 4.35953 12.9402 4.00953 13.0002 3.64953C13.1502 2.69953 12.6402 1.94953 11.7802 1.83953C11.6002 1.81953 11.4002 1.83953 11.2102 1.89953C11.0202 1.95953 10.8502 2.05953 10.7002 2.19953C10.5502 2.33953 10.4202 2.50953 10.3302 2.69953C10.2402 2.88953 10.1902 3.09953 10.1702 3.31953C10.1602 3.51953 10.1602 3.71953 10.1902 3.90953C10.2402 4.24953 10.1202 4.48953 9.89024 4.67953C9.67024 4.87953 9.43024 5.04953 9.09024 4.89953C8.74024 4.74953 8.38024 4.62953 8.01024 4.54953C7.85024 4.51953 7.64024 4.60953 7.52024 4.72953C6.97024 5.28953 6.32024 5.65953 5.62024 5.89953C5.42024 5.96953 5.28024 6.06953 5.27024 6.33953C5.20024 6.32953 5.13024 6.30953 5.06024 6.28953C4.34024 5.93953 3.62024 5.94953 2.88024 6.23953C2.61024 6.33953 2.33024 6.41953 2.06024 6.53953C1.71024 6.69953 1.35024 6.67953 0.990236 6.59953C0.810236 6.55953 0.620236 6.52953 0.430236 6.52953C0.330236 6.52953 0.190236 6.60953 0.140236 6.69953C-0.0497645 7.09953 -0.0697645 7.51953 0.130236 7.90953C0.300236 8.21953 0.530236 8.20953 0.690235 7.89953C0.770235 7.74953 0.860236 7.61953 0.940235 7.47953L1.02024 7.52953C0.990236 7.67953 0.960236 7.82953 0.910236 8.05953C1.05024 7.95953 1.13024 7.91953 1.19024 7.85953C1.57024 7.52953 2.00024 7.45953 2.47024 7.51953C2.98024 7.57953 3.49024 7.66953 4.00024 7.69953C4.34024 7.71953 4.68024 7.68953 5.02024 7.64953C5.21024 7.63953 5.30024 7.67953 5.32024 7.89953C5.33024 8.06953 5.36024 8.23953 5.41024 8.39953C5.47024 8.63953 5.57024 8.66953 5.77024 8.54953C6.03024 8.38953 6.29024 8.24953 6.56024 8.11953C6.77024 8.01953 6.93024 8.12953 6.94024 8.37953C7.02024 9.62953 7.39024 10.7995 7.81024 11.9395C7.93024 12.2795 8.05024 12.6195 8.18024 12.9495C8.31024 13.2395 8.33024 13.5695 8.26024 13.8795C8.11024 14.5495 8.21024 15.1995 8.41024 15.8395C8.61024 16.4795 8.80024 17.1395 8.78024 17.8395C8.77024 18.0195 8.85023 18.1195 9.03024 18.0695C9.06024 18.0595 9.09024 18.0595 9.12024 18.0495C9.46024 17.9895 9.54024 18.0695 9.47024 18.4495C9.46024 18.5195 9.38024 18.6195 9.32024 18.6295C8.40024 18.7895 7.67024 19.3495 6.97024 19.9895C6.60024 20.3295 6.19024 20.5495 5.68024 20.3895C5.58024 20.3595 5.48024 20.3595 5.38024 20.3695C5.19024 20.3895 5.07024 20.5095 5.07024 20.7195C5.03024 21.9395 4.99024 23.1695 5.44024 24.3195C5.46024 24.3695 5.47024 24.4295 5.50024 24.4595C5.56024 24.5295 5.64024 24.6195 5.71024 24.6195C5.77024 24.6195 5.86024 24.5195 5.88024 24.4395C5.96024 24.1195 6.02024 23.7895 6.09024 23.4595C6.10024 23.3995 6.11024 23.3495 6.13024 23.2595L6.43024 23.3995C6.46024 23.2595 6.49024 23.1395 6.50024 23.0095C6.51024 22.7895 6.53024 22.5595 6.51024 22.3395C6.41024 21.4695 6.68024 21.3395 7.32024 21.2095C8.44024 20.9895 9.57024 20.7595 10.6902 20.5395C10.9602 20.4895 11.2102 20.3795 11.4002 20.1295C11.5202 19.9795 11.6602 19.9695 11.7902 20.0895C12.1502 20.4295 12.5202 20.7695 12.8702 21.1195C12.9402 21.1895 12.9902 21.3495 12.9802 21.4695C12.9502 21.8095 12.9902 22.1595 13.0802 22.4795C13.1702 22.8095 13.3202 23.1095 13.5202 23.3695C14.0502 24.0995 14.6302 24.7795 15.1802 25.4795C15.4402 25.8095 15.6902 26.1495 15.9502 26.4895C16.2002 26.8195 16.4002 27.1695 16.5102 27.5895C16.6302 28.0195 16.9502 28.2395 17.2902 28.4395H17.5002V28.4595Z" fill="black"/>
<path d="M123.78 4.28L124.76 0H136.58L135.72 4.28H131.94L126.32 25.7H121.95L127.51 4.28H123.78Z" fill="#199005"/>
<path fill-rule="evenodd" clip-rule="evenodd" d="M100.79 14.82L99.0704 21.39H100.8C101.53 21.39 102.17 20.85 102.36 20.07L103.43 15.72C103.54 15.26 103.23 14.81 102.81 14.81H100.79V14.82ZM101.81 10.82L103.53 4.25H105.54C105.97 4.25 106.28 4.7 106.16 5.16L105.1 9.5C104.91 10.28 104.27 10.82 103.54 10.82H101.81ZM100.36 0C98.3004 8.37 94.1104 25.27 93.9004 25.7H100.36C101.6 25.7 103 25.64 104.72 24.15C106.44 22.66 107.41 17.81 107.63 16.02C107.8 14.59 107.09 13.27 106.71 12.79C108.76 12.07 109.56 8.73 110.1 4.78C110.46 2.17 109 0.8 107.82 0.24C107.39 0.04 106.9 0 106.42 0H100.36Z" fill="#199005"/>
<path d="M123.98 0H114.83L108.13 25.7H117.44L118.48 21.28H113.58L115.26 14.82H119.73L120.88 10.46H116.46L117.99 4.06H122.95L123.98 0Z" fill="#199005"/>
<path d="M25.6104 25.7L31.8404 0H36.1804L30.9504 21.49H35.7004L34.6504 25.7H25.6104Z" fill="black"/>
<path d="M37.5203 20.85L42.7003 0H46.7403L41.5203 20.47C41.3603 21.08 41.7703 21.69 42.3403 21.69H44.1903C44.5703 21.69 44.9003 21.41 45.0103 21L50.4703 0H54.4103L48.9603 21.94C48.4103 24.16 46.6003 25.7 44.5503 25.7H40.8203C38.5503 25.7 36.9203 23.29 37.5203 20.85Z" fill="black"/>
<path d="M66.7401 10.66H62.7001L64.1601 4.73C64.2601 4.34 63.9901 3.96 63.6301 3.97L61.7401 4.04C61.2701 4.06 60.8701 4.42 60.7401 4.92L56.9101 20.9C56.8001 21.36 57.1101 21.8 57.5301 21.8H59.2301C59.5601 21.8 59.8501 21.56 59.9401 21.21L61.4801 15.51H65.4701L64.3101 21.08C63.7501 23.78 61.6001 25.69 59.1201 25.69H56.1501C53.8301 25.69 52.1401 23.21 52.7601 20.69L56.8701 4.02C57.4501 1.65 59.3901 0 61.5901 0H64.8801C67.1301 0 68.7601 2.4 68.1701 4.84L66.7401 10.66Z" fill="black"/>
<path d="M72.6702 0L66.2603 25.7H70.4603L73.0403 15.12H74.0902V25.7H78.3503L78.1403 12.37L84.5503 0H80.1403L74.7702 10.7H74.0902L76.7702 0H72.6702Z" fill="black"/>
<path d="M85.5501 17.07L85.3401 0H89.3501L88.9101 11.86L94.2801 0H98.7801L89.6701 17.07L87.5101 25.7H83.3301L85.5501 17.07Z" fill="black"/>
<path d="M20.6003 21.1896C19.7503 21.1796 19.1503 21.8496 19.1403 22.8196C19.1303 23.7796 19.7303 24.4696 20.5703 24.4796C21.4203 24.4896 22.0503 23.7996 22.0503 22.8396C22.0603 21.8796 21.4603 21.1996 20.6003 21.1896Z" fill="black"/>
</g>
<defs>
<clipPath id="clip0_519_5799">
<rect width="136.58" height="28.46" fill="white"/>
</clipPath>
</defs>
</svg>
