<svg width="85" height="82" viewBox="0 0 85 82" fill="none" xmlns="http://www.w3.org/2000/svg">
<path fill-rule="evenodd" clip-rule="evenodd" d="M53.0466 27.569C53.0466 26.5759 52.9098 25.615 52.654 24.704C49.7252 25.9132 47.6633 28.8045 47.6633 32.179V57.3391H37.3271V32.1922C37.3271 28.8461 35.2997 25.9751 32.4102 24.748C32.1622 25.6459 32.0298 26.5919 32.0298 27.569V57.3391H17.7314V32.1922C17.7314 26.6136 21.6635 21.9563 26.8988 20.8578C26.4482 21.9516 26.0106 23.3081 25.6908 24.9538C23.0408 26.2767 21.2199 29.021 21.2199 32.1922V53.8392L28.5413 53.8393V27.569C28.5413 19.8134 34.808 13.5264 42.5382 13.5264C50.2685 13.5264 56.5351 19.8134 56.5351 27.569V53.8393L63.7704 53.8392V32.179C63.7704 29.0511 61.9988 26.3383 59.4074 24.9956C59.0856 23.3429 58.6466 21.9752 58.1912 20.866C63.3766 22.0023 67.2589 26.6358 67.2589 32.179V57.3391H53.0466V27.569ZM44.1748 53.8392V32.179C44.1748 27.408 47.0507 23.311 51.1582 21.5375C49.2587 18.8102 46.1062 17.0263 42.5382 17.0263C38.9534 17.0263 35.7877 18.8272 33.8913 21.5764C37.9672 23.3636 40.8155 27.4441 40.8155 32.1922V53.8392H44.1748Z" fill="url(#paint0_linear_440_16182)"/>
<path d="M42.5525 10.773C45.4923 10.773 47.8755 8.38984 47.8755 5.44998C47.8755 2.51016 45.4923 0.126953 42.5525 0.126953C39.6127 0.126953 37.2295 2.51016 37.2295 5.44998C37.2295 8.38984 39.6127 10.773 42.5525 10.773Z" fill="#F9FBFC"/>
<path d="M46.3538 9.17587C46.3592 9.1703 46.3647 9.16473 46.3701 9.15915C47.33 8.17204 47.8628 6.87714 47.8751 5.49924C47.8779 5.28456 47.8662 5.06975 47.8428 4.85641C47.7109 3.65906 47.1808 2.55006 46.3167 1.68593C45.5789 0.948142 44.6625 0.453976 43.6651 0.242985C42.9343 0.0882758 42.1709 0.0882758 41.44 0.242985C40.4427 0.453976 39.5263 0.948142 38.7885 1.68593C37.8985 2.57591 37.3628 3.72565 37.2515 4.96411C37.2298 5.20304 37.2241 5.44319 37.2347 5.68296C37.2907 6.99147 37.8176 8.21508 38.7341 9.15816C38.8237 9.25088 38.9172 9.33979 39.0132 9.42572C39.989 10.2966 41.2341 10.773 42.5526 10.773C43.8708 10.773 45.1157 10.2968 46.0914 9.42625C46.1814 9.34559 46.2694 9.26256 46.3538 9.17587ZM40.3056 8.7753L38.5962 8.75607C37.9453 7.97843 37.5189 7.00692 37.4177 5.94194L38.9185 4.72855L40.3087 5.18023L41.1148 7.66137L40.3056 8.7753ZM44.7964 5.18026L46.1182 4.75079L47.6801 6.01358C47.5669 7.05046 47.1453 7.99591 46.509 8.75607L44.7995 8.7753L43.9903 7.6614L44.7964 5.18026ZM46.8396 2.58427L46.0703 4.59316L44.7385 5.02587L42.6349 3.49758V2.25173L44.6925 0.75685C45.566 1.15669 46.3093 1.79336 46.8396 2.58427ZM40.4126 0.75683L42.4702 2.25171V3.49756L40.3666 5.02587L38.9656 4.57067L38.2271 2.64245C38.7599 1.82458 39.5178 1.16643 40.4126 0.75683ZM41.0123 10.3734L40.5315 8.83475C40.5257 8.81613 40.5136 8.80094 40.498 8.79071L41.2455 7.76193H43.8597L44.6065 8.7898C44.5903 8.80002 44.5776 8.81559 44.5716 8.83475L44.0905 10.3741C43.6046 10.5262 43.088 10.6083 42.5526 10.6083C42.0163 10.6083 41.499 10.5259 41.0123 10.3734Z" fill="black"/>
<path d="M16.8691 64.3521L18.0103 64.0412C17.5751 64.6211 17.1019 66.1739 16.5905 68.6993C15.8437 72.4886 15.6692 75.1134 16.0672 76.574C16.2511 77.2486 16.5579 77.5279 16.9874 77.4104C17.1837 77.3569 17.4012 77.2119 17.64 76.9754L17.6584 76.9708C17.6953 76.9609 17.722 76.9861 17.7387 77.0479C17.8023 77.2806 17.5496 77.5866 16.9806 77.9659C16.4239 78.3421 15.9491 78.5833 15.5565 78.6901C14.7343 78.9145 14.2012 78.5787 13.957 77.6828C13.5322 76.1242 13.9261 72.6355 15.1385 67.2166C14.7747 67.8166 14.5337 68.2382 14.4154 68.4814C13.5952 70.1156 12.4324 72.7658 10.9269 76.432C10.6066 77.1921 10.3762 77.6767 10.2355 77.8865C10.095 78.0956 9.8713 78.2429 9.56452 78.3261C9.27003 78.4062 8.90136 78.4078 8.45851 78.3307C8.65823 77.8545 8.48721 76.6228 7.94538 74.6347C7.40027 72.6344 6.78252 70.8517 6.09234 69.2866C5.87462 70.2291 5.57531 72.2749 5.1944 75.424C4.81347 78.5734 4.72167 80.5094 4.919 81.2337C4.94241 81.3191 4.96359 81.3733 4.98256 81.3939L3.28912 81.8556C3.50028 79.8738 3.85658 77.2386 4.358 73.9514C4.85943 70.664 5.176 68.7057 5.30774 68.0766C4.19105 68.3809 3.15911 68.8995 2.21191 69.6323C1.27698 70.3617 0.797742 71.046 0.774207 71.6851C0.771971 71.7253 0.752443 71.7504 0.715629 71.7604C0.617459 71.7872 0.546633 71.7208 0.503157 71.5612C0.496472 71.5367 0.500402 71.3577 0.514963 71.0241C0.529516 70.6906 0.626632 70.3214 0.806297 69.9164C0.998241 69.5082 1.25654 69.1741 1.5812 68.9143C2.1156 68.505 2.82457 68.1799 3.70811 67.9392L6.04579 67.302C6.41392 67.2017 6.71902 67.1844 6.96109 67.2503C7.21544 67.3128 7.44904 67.5655 7.66203 68.0084C7.87174 68.439 8.24079 69.4788 8.76926 71.1276C9.30666 72.7608 9.66732 73.9149 9.85131 74.5898C10.0352 75.2647 10.1484 75.7283 10.1908 75.9804C11.3468 73.3055 12.8662 69.9319 14.7488 65.8594C15.0824 65.1489 15.7892 64.6465 16.8691 64.3521Z" fill="url(#paint1_linear_440_16182)"/>
<path d="M25.7212 71.7283C25.7965 71.7156 25.8552 71.8347 25.8974 72.0855C25.9376 72.3238 25.8858 72.6292 25.7421 73.0016C25.5985 73.3741 25.4517 73.7277 25.3017 74.0625C25.1642 74.3952 24.9662 74.7897 24.7078 75.246C24.4492 75.7022 24.1833 76.0759 23.9098 76.367C23.2168 77.0769 22.469 77.4996 21.6662 77.6347C20.8761 77.7675 20.2026 77.6752 19.6459 77.3562C19.0871 77.0242 18.7369 76.4381 18.5954 75.5981C18.3799 74.3187 18.6507 73.0542 19.4077 71.8047C20.1645 70.5551 21.1701 69.8247 22.4244 69.6135C22.9888 69.5185 23.4656 69.593 23.855 69.8369C24.2422 70.0684 24.4707 70.391 24.5403 70.805C24.6586 71.5074 24.4213 72.1277 23.8283 72.6661C23.2354 73.2045 22.4874 73.5497 21.5843 73.7017C21.0576 73.7904 20.6571 73.7869 20.3831 73.6912C20.2525 74.371 20.2284 74.9554 20.3108 75.4446C20.4882 76.4984 21.0221 76.9502 21.9126 76.7998C22.4394 76.7113 22.9449 76.4198 23.4292 75.9255C23.9239 75.4166 24.3235 74.8786 24.6278 74.3114C24.9425 73.7296 25.2705 72.9198 25.6117 71.8821C25.647 71.7859 25.6836 71.7346 25.7212 71.7283ZM23.4767 70.5778C23.4155 70.2141 23.2092 70.0617 22.8581 70.1209C22.3689 70.2032 21.874 70.5962 21.3733 71.2996C20.8727 72.0029 20.654 72.5428 20.7174 72.9191C20.7596 73.1699 21.0191 73.2552 21.4957 73.175C21.9722 73.0947 22.4286 72.7793 22.8647 72.2286C23.3134 71.6759 23.5174 71.1256 23.4767 70.5778Z" fill="url(#paint2_linear_440_16182)"/>
<path d="M35.599 63.2588C35.2106 63.6032 34.7428 64.5111 34.1956 65.9826C33.6597 67.4402 33.2078 68.9728 32.8397 70.5802C32.4705 72.175 32.3197 73.3206 32.3873 74.0168C32.4266 74.422 32.5538 74.6141 32.769 74.5932C32.9842 74.5723 33.2366 74.4073 33.526 74.098C33.8282 73.7877 34.0396 73.5307 34.1605 73.3274C34.2813 73.1239 34.4373 72.8212 34.6283 72.4194C34.8308 72.0036 35.0008 71.6485 35.1383 71.354C35.2873 71.0457 35.3744 70.8903 35.3997 70.8878C35.4883 70.8792 35.5444 70.9951 35.5677 71.2357C35.598 71.68 35.1623 72.6551 34.2605 74.161C33.9629 74.6499 33.5926 75.1139 33.1496 75.553C32.7066 75.9921 32.2889 76.2307 31.8965 76.2688C31.2256 76.3339 30.8415 75.8664 30.7446 74.8663C30.6733 74.132 30.7654 73.1711 31.0207 71.9835C30.5502 73.192 29.9826 74.2565 29.3179 75.1771C28.6533 76.0978 27.9475 76.5946 27.2006 76.6671C26.3524 76.7487 25.8719 76.2079 25.7588 75.0432C25.6729 74.157 25.7756 73.2397 26.067 72.2915C26.371 71.3419 26.8531 70.5157 27.5133 69.8127C28.1723 69.0971 28.9195 68.6987 29.7551 68.6177C30.6032 68.5354 31.2126 68.7574 31.5831 69.2837C31.87 68.553 32.1528 67.7142 32.4315 66.7671C32.7229 65.8188 32.9127 65.2062 33.0008 64.9293C33.1004 64.6385 33.1694 64.4273 33.2077 64.2958C33.2588 64.1631 33.323 64.0354 33.4006 63.9129C33.5227 63.7222 33.6768 63.5986 33.863 63.5422C34.0607 63.4719 34.3747 63.4159 34.8051 63.3742C35.247 63.3185 35.5115 63.2801 35.599 63.2588ZM31.5103 69.5208C31.3362 69.3077 31.072 69.2183 30.7175 69.2527C30.1479 69.3079 29.6001 69.655 29.0743 70.2938C28.5599 70.9187 28.1623 71.6282 27.8814 72.4221C27.6121 73.2022 27.505 73.877 27.5603 74.4467C27.5984 74.8392 27.7693 75.0207 28.0731 74.9912C29.0986 74.8918 30.2442 73.0683 31.5103 69.5208Z" fill="url(#paint3_linear_440_16182)"/>
<path d="M40.4881 65.5853L40.4119 65.5881C40.1577 65.5977 39.9138 65.7152 39.6806 65.9404C39.4599 66.165 39.3031 66.3937 39.2101 66.6263C38.8748 66.5117 38.701 66.2892 38.6885 65.9588C38.676 65.6283 38.816 65.2921 39.1086 64.9501C39.4006 64.5954 39.6864 64.4127 39.966 64.4022C40.2457 64.3916 40.4578 64.4472 40.6024 64.5691C40.747 64.6909 40.8232 64.8534 40.8309 65.0568C40.8381 65.2474 40.7238 65.4236 40.4881 65.5853ZM37.9904 68.1998L38.9444 68.1828L39.135 68.1757C38.9374 68.3358 38.6798 68.7592 38.3621 69.4458C38.0571 70.132 37.8285 70.6497 37.6762 70.9991C37.5239 71.3485 37.3509 71.8196 37.1569 72.4124C36.9756 73.0048 36.892 73.4852 36.9059 73.8538C36.9198 74.2224 37.0475 74.4022 37.289 74.393C37.4543 74.3868 37.6789 74.2701 37.9631 74.043C38.2595 73.8027 38.4985 73.5582 38.6799 73.3095C38.861 73.048 39.0587 72.7224 39.273 72.3325C39.5001 71.942 39.691 71.6039 39.8457 71.318C40.0131 71.0317 40.1094 70.8881 40.1348 70.8871C40.2111 70.8842 40.2538 71.0035 40.2629 71.245C40.2716 71.4738 40.2164 71.6986 40.0975 71.9194C39.657 72.7252 39.2498 73.4025 38.8761 73.9512C38.5145 74.4867 38.0932 74.9608 37.6125 75.3736C37.1317 75.7863 36.6879 76.0004 36.2812 76.0158C35.5695 76.0427 35.1948 75.5604 35.1574 74.569C35.0992 73.0312 35.5623 71.3081 36.5466 69.3999C36.9626 68.6205 37.4439 68.2205 37.9904 68.1998Z" fill="url(#paint4_linear_440_16182)"/>
<path d="M48.988 72.0804C48.5034 72.8604 48.0592 73.5139 47.6554 74.041C47.2645 74.5555 46.8175 75.0055 46.3146 75.3908C45.8115 75.7761 45.3565 75.9651 44.9495 75.9579C44.1993 75.9444 43.8315 75.5243 43.8463 74.6978C43.8612 73.8712 44.3678 72.2202 45.3663 69.7447C45.4192 69.6313 45.4468 69.5109 45.4491 69.3837C45.4539 69.1167 45.2846 68.9801 44.9412 68.9739C44.6106 68.968 44.2781 69.0701 43.9435 69.2804C43.6219 69.4782 43.3241 69.7718 43.0499 70.1612C42.7761 70.5379 42.5274 70.9278 42.3039 71.3308C42.0806 71.7212 41.869 72.1754 41.6689 72.6933C41.4815 73.2115 41.3274 73.6476 41.2065 74.0017C41.0986 74.3432 40.9838 74.7164 40.862 75.1213C40.7533 75.5137 40.6922 75.7289 40.6787 75.7668L38.8284 75.7336C38.8332 75.4666 39.4202 73.9442 40.5895 71.1665C41.0708 69.8649 41.3162 68.9535 41.3255 68.432C41.3278 68.3049 41.3104 68.2092 41.2734 68.1448L42.0746 68.1593C42.5196 68.1672 42.805 68.2169 42.9306 68.3081C43.0561 68.3995 43.1176 68.5214 43.1148 68.674C43.1121 68.8266 43.0365 69.1369 42.8882 69.6049C43.9747 68.6068 45.0584 68.1174 46.1393 68.1367C46.8642 68.1497 47.2207 68.4869 47.2088 69.1481C47.2049 69.3643 47.1693 69.5799 47.1018 69.795C47.0343 70.01 46.8676 70.4396 46.6016 71.0836C46.0165 72.4978 45.7197 73.4466 45.7111 73.9298C45.7056 74.235 45.8173 74.3896 46.0462 74.3938C46.2115 74.3967 46.4425 74.2864 46.7391 74.0627C47.0484 73.8393 47.3005 73.6085 47.4957 73.3702C47.7037 73.1196 47.9255 72.8119 48.161 72.4472C48.4094 72.07 48.6188 71.7431 48.7892 71.4662C48.9595 71.1894 49.0574 71.0512 49.0828 71.0517C49.1591 71.0531 49.1951 71.1746 49.1907 71.4162C49.1867 71.6451 49.1191 71.8665 48.988 72.0804Z" fill="url(#paint5_linear_440_16182)"/>
<path d="M56.9916 69.0913L57.9396 69.2L58.1295 69.218C57.6794 69.5204 57.0847 70.3394 56.3453 71.6749C55.6072 72.9977 55.2083 73.9757 55.1484 74.6088C55.1174 74.938 55.2158 75.1134 55.4437 75.1349C56.1781 75.2043 57.2175 74.2101 58.5615 72.1524C58.6205 72.0686 58.669 72.0284 58.707 72.032C58.783 72.0392 58.8096 72.163 58.7869 72.4037C58.7654 72.6315 58.6811 72.8472 58.5342 73.0505C56.7292 75.5246 55.3012 76.7121 54.2502 76.6129C53.5665 76.548 53.2742 75.9905 53.3734 74.9395C53.4475 74.1544 53.6534 73.3945 53.9911 72.6598C52.306 75.0814 50.8494 76.2342 49.6211 76.1182C48.7727 76.0382 48.4035 75.4156 48.5135 74.2507C48.5972 73.3643 48.872 72.4832 49.3379 71.6073C49.8166 70.7327 50.4467 70.0128 51.2282 69.4479C52.011 68.8702 52.8329 68.622 53.6939 68.7034C54.0991 68.7416 54.47 68.8724 54.8066 69.0958C55.1445 69.3066 55.3512 69.62 55.4269 70.036C55.5937 69.7579 55.8329 69.5249 56.1444 69.3372C56.456 69.1493 56.7384 69.0675 56.9916 69.0913ZM55.2968 70.1961C55.2084 69.7789 54.93 69.5482 54.4615 69.504C53.6258 69.4251 52.7604 69.9311 51.8653 71.0219C50.9714 72.1001 50.4814 73.0951 50.3953 74.0067C50.3583 74.3993 50.4917 74.6099 50.7956 74.6386C51.1248 74.6696 51.5302 74.5035 52.0117 74.1402C52.4943 73.7642 52.9392 73.3143 53.3463 72.7906C54.2486 71.6238 54.8988 70.7589 55.2968 70.1961Z" fill="url(#paint6_linear_440_16182)"/>
<path d="M70.5425 68.5761C70.1583 69.8891 69.1359 70.7354 67.4752 71.1149C67.0848 71.1981 66.6951 71.2428 66.306 71.2487C68.1905 71.9709 68.9956 73.0763 68.7213 74.5648C68.4886 75.8281 67.6172 76.767 66.1074 77.3814C64.6099 77.9972 62.8668 78.1224 60.878 77.7561C59.9023 77.5767 59.1169 77.2768 58.5218 76.8563C57.929 76.4236 57.6982 75.8513 57.8296 75.1383C57.9909 74.2627 58.7349 72.8219 60.0615 70.816C61.3881 68.8101 62.5871 67.1104 63.6586 65.7171C63.8298 65.49 63.9559 65.3321 64.0368 65.2435L63.3441 65.2129C62.3431 65.1707 61.3998 65.2362 60.5144 65.4094C59.6414 65.5848 59.0162 65.8899 58.6386 66.3248C58.6192 66.3599 58.5845 66.373 58.5344 66.3638C58.4843 66.3545 58.4651 66.3187 58.4766 66.2561C58.4904 66.1811 58.5059 66.1322 58.523 66.1095C59.238 64.8962 60.2537 64.2621 61.5701 64.2071C62.1685 64.1881 62.9493 64.2672 63.9124 64.4447L67.6087 65.1256C68.7469 65.3354 69.5588 65.7371 70.0443 66.3309C70.5423 66.9271 70.7233 67.5942 70.5874 68.3322L70.5425 68.5761ZM68.681 67.7288C68.7712 66.6073 68.0102 65.8592 66.398 65.4845C65.6695 66.1392 64.6301 67.4286 63.2798 69.3526C61.9295 71.2765 61.0366 72.6833 60.6011 73.5731C60.1679 74.4504 59.9064 75.1329 59.8165 75.6207C59.7289 76.096 59.8088 76.4343 60.0564 76.635C60.3062 76.8235 60.7501 76.9761 61.3881 77.0937C62.5763 77.3127 63.6733 77.1845 64.6789 76.7106C65.6869 76.2237 66.3084 75.3424 66.5434 74.0665C66.6587 73.4411 66.6013 72.8744 66.3716 72.3665C66.1544 71.8609 65.7588 71.5164 65.1847 71.3331C64.3699 71.4028 63.5999 71.3709 62.8744 71.2372C62.6617 71.1981 62.5635 71.1346 62.5796 71.0471C62.6327 70.7594 62.8622 70.6013 63.2684 70.5727C63.6769 70.5315 64.0563 70.5432 64.4065 70.6077C64.7568 70.6723 65.0961 70.7606 65.4247 70.8729C66.2838 70.7725 66.9984 70.4386 67.5685 69.8711C68.1512 69.3059 68.507 68.6732 68.6361 67.9727L68.681 67.7288Z" fill="url(#paint7_linear_440_16182)"/>
<path d="M77.649 76.25C77.723 76.2697 77.7269 76.4024 77.6612 76.648C77.5986 76.8815 77.4254 77.1379 77.14 77.4172C76.8546 77.6965 76.5745 77.9575 76.299 78.2002C76.0357 78.4452 75.6923 78.7222 75.2673 79.0305C74.843 79.338 74.4461 79.5677 74.0765 79.7196C73.1514 80.0775 72.2956 80.1523 71.5091 79.9417C70.735 79.7356 70.1608 79.3716 69.7866 78.8504C69.4156 78.317 69.3401 77.6385 69.5599 76.8151C69.8946 75.5614 70.6656 74.5233 71.8727 73.7003C73.0798 72.8773 74.2981 72.6299 75.5267 72.9581C76.0792 73.1057 76.4829 73.3714 76.7355 73.7549C76.992 74.1261 77.066 74.5145 76.9576 74.92C76.7737 75.6081 76.3005 76.0742 75.5374 76.3181C74.775 76.5618 73.951 76.5656 73.0663 76.3295C72.5502 76.1916 72.1873 76.0223 71.9776 75.8215C71.5768 76.3858 71.3124 76.9075 71.1844 77.3867C70.9088 78.4192 71.2072 79.0519 72.0797 79.2846C72.5958 79.4227 73.1767 79.367 73.8223 79.1183C74.4835 78.8603 75.0704 78.5367 75.5824 78.1468C76.1105 77.7477 76.7447 77.1471 77.4857 76.3446C77.5574 76.2717 77.6124 76.2402 77.649 76.25ZM76.0838 74.272C76.1792 73.9157 76.0548 73.6916 75.7106 73.5997C75.2314 73.4717 74.6178 73.6238 73.8708 74.0562C73.1235 74.4885 72.7006 74.889 72.6021 75.2576C72.5365 75.5034 72.7372 75.6886 73.2041 75.8133C73.6711 75.938 74.2172 75.8404 74.8422 75.5202C75.4802 75.2034 75.8938 74.7873 76.0838 74.272Z" fill="url(#paint8_linear_440_16182)"/>
<path d="M84.9034 72.4145C84.1776 72.6339 83.1711 73.4711 81.8844 74.9261L83.7175 75.5198L83.7297 75.5438C83.7098 75.6043 83.6083 75.6916 83.4244 75.8059C83.2443 75.908 83.1054 75.9433 83.0093 75.912L81.4479 75.4065C79.724 77.4684 78.7525 78.8382 78.5327 79.5158C78.3839 79.976 78.4549 80.253 78.7456 80.3469C79.1684 80.4843 79.7827 80.282 80.5863 79.7402C80.7702 79.6257 81.032 79.4159 81.3716 79.1114C82.2179 78.3963 82.6529 78.043 82.6773 78.0506C82.7498 78.0743 82.7551 78.1826 82.6926 78.3765C82.5315 78.8321 81.7394 79.5647 80.3162 80.5751C79.8484 80.9047 79.3233 81.1825 78.7426 81.4092C78.1611 81.6351 77.6826 81.6877 77.3079 81.5656C76.618 81.3428 76.4295 80.7468 76.7432 79.7791C77.0057 78.9679 77.501 78.0995 78.229 77.1715L78.2351 77.1539C77.868 77.5027 77.5666 77.753 77.3308 77.9033C77.1064 78.0583 76.9828 78.1315 76.9584 78.1239C76.9103 78.1086 76.9095 78.0277 76.9561 77.8827C77.0072 77.7255 77.1659 77.5027 77.433 77.215C77.7123 76.9311 78.0794 76.5617 78.5335 76.1073C79.0005 75.6568 79.3973 75.2371 79.724 74.8482L78.5075 74.4544C78.4709 74.4427 78.461 74.4126 78.4762 74.3642C78.4961 74.3037 78.5701 74.2206 78.6976 74.1149C78.838 74.0132 78.9318 73.9701 78.9799 73.9858L80.3597 74.4324C81.9088 72.6212 83.1306 71.8605 84.0265 72.1505C84.547 72.3189 84.8393 72.4069 84.9034 72.4145Z" fill="url(#paint9_linear_440_16182)"/>
<defs>
<linearGradient id="paint0_linear_440_16182" x1="42.4952" y1="13.5264" x2="42.4952" y2="57.3391" gradientUnits="userSpaceOnUse">
<stop stop-color="#F37834"/>
<stop offset="1" stop-color="#F7D466"/>
</linearGradient>
<linearGradient id="paint1_linear_440_16182" x1="24.8162" y1="61.5622" x2="26.3364" y2="87.3171" gradientUnits="userSpaceOnUse">
<stop stop-color="#F4BA54"/>
<stop offset="1" stop-color="#F4BA54"/>
</linearGradient>
<linearGradient id="paint2_linear_440_16182" x1="2.65915" y1="40.2339" x2="4.52941" y2="95.6476" gradientUnits="userSpaceOnUse">
<stop stop-color="#F4BA54"/>
<stop offset="1" stop-color="#F4BA54"/>
</linearGradient>
<linearGradient id="paint3_linear_440_16182" x1="21.2598" y1="56.3418" x2="21.7827" y2="89.5986" gradientUnits="userSpaceOnUse">
<stop stop-color="#F4BA54"/>
<stop offset="1" stop-color="#F4BA54"/>
</linearGradient>
<linearGradient id="paint4_linear_440_16182" x1="15.2315" y1="52.5802" x2="15.3873" y2="90.848" gradientUnits="userSpaceOnUse">
<stop stop-color="#F4BA54"/>
<stop offset="1" stop-color="#F4BA54"/>
</linearGradient>
<linearGradient id="paint5_linear_440_16182" x1="40.2855" y1="38.3411" x2="39.9881" y2="95.1391" gradientUnits="userSpaceOnUse">
<stop stop-color="#F4BA54"/>
<stop offset="1" stop-color="#F4BA54"/>
</linearGradient>
<linearGradient id="paint6_linear_440_16182" x1="46.0219" y1="38.7467" x2="44.5028" y2="94.9684" gradientUnits="userSpaceOnUse">
<stop stop-color="#F4BA54"/>
<stop offset="1" stop-color="#F4BA54"/>
</linearGradient>
<linearGradient id="paint7_linear_440_16182" x1="53.7799" y1="57.4168" x2="52.5379" y2="90.2035" gradientUnits="userSpaceOnUse">
<stop stop-color="#F4BA54"/>
<stop offset="1" stop-color="#F4BA54"/>
</linearGradient>
<linearGradient id="paint8_linear_440_16182" x1="70.9093" y1="36.0769" x2="66.6609" y2="99.29" gradientUnits="userSpaceOnUse">
<stop stop-color="#F4BA54"/>
<stop offset="1" stop-color="#F4BA54"/>
</linearGradient>
<linearGradient id="paint9_linear_440_16182" x1="83.1375" y1="64.2424" x2="75.7793" y2="86.9671" gradientUnits="userSpaceOnUse">
<stop stop-color="#F4BA54"/>
<stop offset="1" stop-color="#F4BA54"/>
</linearGradient>
</defs>
</svg>
