<svg width="184" height="29" viewBox="0 0 184 29" fill="none" xmlns="http://www.w3.org/2000/svg">
<path d="M165.506 19.7844L166.375 7.40369C166.399 7.03024 166.732 6.74609 167.13 6.74609H171.497C171.944 6.74609 172.293 7.10331 172.244 7.52547L171.197 17.8522C171.124 18.5423 171.708 19.1431 172.447 19.1431H183.505C183.781 19.1431 184 19.3542 184 19.614V24.1035C184 24.3633 183.773 24.5744 183.496 24.5744H170.255C167.511 24.5663 165.327 22.3743 165.506 19.7844Z" fill="black"/>
<path d="M62.8635 7.66417V10.8304C62.8635 11.2201 62.5306 11.5367 62.1085 11.5367H52.0821C50.4665 11.5367 49.1432 12.7301 49.0782 14.2321L48.8671 18.8921C48.8428 19.4279 49.2974 19.8744 49.8657 19.8744H56.0926C56.5067 19.8744 56.8476 19.5578 56.8476 19.1681V15.2956C56.8476 14.9059 57.1805 14.5893 57.6027 14.5893H61.459C61.8811 14.5893 62.2221 14.9221 62.214 15.3199L61.9055 23.4385C61.8811 24.0717 61.3291 24.5751 60.6552 24.5751H48.445C45.6766 24.5751 43.4277 22.4724 43.4277 19.8825V14.0129C43.4277 10.1241 46.7969 6.96597 50.9455 6.96597H62.1085C62.5225 6.95785 62.8635 7.27448 62.8635 7.66417Z" fill="#009B3A"/>
<path d="M109.034 7.66417V10.8304C109.034 11.2201 108.701 11.5367 108.287 11.5367H98.3741C96.7828 11.5367 95.4676 12.7301 95.4027 14.2321L95.1916 18.8921C95.1672 19.4279 95.6219 19.8744 96.1821 19.8744H102.336C102.75 19.8744 103.083 19.5578 103.083 19.1681V15.2956C103.083 14.9059 103.416 14.5893 103.83 14.5893H107.645C108.068 14.5893 108.4 14.9221 108.392 15.3199L108.092 23.4385C108.068 24.0717 107.524 24.5751 106.858 24.5751H94.8019C92.066 24.5751 89.8496 22.4724 89.8496 19.8825V14.0129C89.8496 10.1241 93.1782 6.96597 97.2862 6.96597H108.311C108.701 6.95785 109.034 7.27448 109.034 7.66417Z" fill="black"/>
<path d="M43.4359 7.8996V10.6112C43.4359 11.1227 42.9975 11.5448 42.4454 11.5529L31.2175 11.6585C30.8116 11.6585 30.4787 11.9751 30.4787 12.3648V12.6083C30.4787 12.998 30.8116 13.3147 31.2256 13.3147H42.0638C42.4779 13.3147 42.8107 13.6313 42.8107 14.021V17.1872C42.8107 17.5769 42.4779 17.8935 42.0638 17.8935H30.7304C30.3163 17.8935 29.9835 18.2101 29.9835 18.5998V18.9489C29.9835 19.3386 30.3163 19.6552 30.7304 19.6552H41.4387C41.8527 19.6552 42.1856 19.9718 42.1856 20.3615V23.885C42.1856 24.2747 41.8527 24.5913 41.4387 24.5913H29.9997C26.3626 24.5913 23.5049 21.6686 23.789 18.2507L24.2518 12.8113C24.5278 9.51518 27.4505 6.97409 30.9577 6.97409H42.4373C42.9893 6.95785 43.4359 7.38001 43.4359 7.8996Z" fill="#009B3A"/>
<path d="M1.57678 6.73859L0.00178949 24.4938C-0.0225661 24.7698 0.204753 25.0053 0.497019 25.0053H4.86479C5.12458 25.0053 5.33566 24.8185 5.36001 24.575L6.59403 12.9249C6.64274 12.4378 7.07302 12.0725 7.58449 12.0725H9.19196C9.78461 12.0725 10.2474 12.5596 10.1824 13.1197L8.98088 24.4776C8.9484 24.7536 9.18384 24.9971 9.47611 24.9971H13.5841C13.8439 24.9971 14.055 24.8104 14.0793 24.5669L15.3133 12.9168C15.362 12.4297 15.7923 12.0643 16.3038 12.0643H17.5622C18.1467 12.0643 18.6013 12.5352 18.5526 13.0873L17.5622 24.4776C17.5378 24.7536 17.7651 24.989 18.0574 24.989H22.2871C22.5469 24.989 22.7661 24.7942 22.7824 24.5506L23.7404 11.8127C23.9433 9.0686 21.662 6.73047 18.7637 6.73047H1.57678V6.73859Z" fill="#009B3A"/>
<path fill-rule="evenodd" clip-rule="evenodd" d="M71.1038 10.8706C69.5857 10.8706 68.3516 12.0316 68.3516 13.4685V14.1748C68.3516 14.4346 68.579 14.6457 68.855 14.6457H75.8613C76.1373 14.6457 76.3646 14.4346 76.3646 14.1748V13.4685C76.3646 12.0316 75.1306 10.8706 73.6124 10.8706H71.1038ZM62.4089 23.8034L63.3344 12.8272C63.6267 9.39304 66.663 6.73828 70.3163 6.73828H74.6029C78.7109 6.73828 81.9339 10.0588 81.5848 13.9151L80.6756 23.9171C80.6431 24.2824 80.3183 24.5666 79.9286 24.5666H76.2916C75.8613 24.5666 75.5122 24.2175 75.5446 23.8115L75.7963 20.2637C75.8369 19.7198 75.3742 19.257 74.7977 19.257H68.7576C68.2461 19.257 67.8158 19.6224 67.759 20.1014L67.3043 23.9414C67.2638 24.2986 66.939 24.5747 66.5574 24.5747H63.1639C62.7174 24.5666 62.3764 24.2175 62.4089 23.8034Z" fill="#009B3A"/>
<path d="M155.22 10.8706C153.701 10.8706 152.467 12.0316 152.467 13.4685V14.1748C152.467 14.4346 152.695 14.6457 152.971 14.6457H159.977C160.253 14.6457 160.48 14.4346 160.48 14.1748V13.4685C160.48 12.0316 159.246 10.8706 157.728 10.8706H155.22ZM146.525 23.8034L147.45 12.8272C147.742 9.39304 150.779 6.73828 154.432 6.73828H158.719C162.827 6.73828 166.05 10.0588 165.701 13.9151L164.791 23.9171C164.759 24.2824 164.434 24.5666 164.044 24.5666H160.407C159.977 24.5666 159.628 24.2175 159.66 23.8115L159.912 20.2637C159.953 19.7198 159.49 19.257 158.913 19.257H152.873C152.362 19.257 151.932 19.6224 151.875 20.1014L151.42 23.9414C151.379 24.2986 151.055 24.5747 150.673 24.5747H147.28C146.841 24.5666 146.492 24.2175 146.525 23.8034Z" fill="black"/>
<path d="M136.661 3.69434C136.263 17.4715 124.321 23.2194 118.402 24.3641L122.778 27.1L129.533 28.0499C132.699 27.3761 139.486 24.7944 141.288 19.8502C143.537 13.672 140.915 9.27988 140.038 7.38015C139.34 5.86198 137.497 4.29511 136.661 3.69434Z" fill="black"/>
<path fill-rule="evenodd" clip-rule="evenodd" d="M143.091 14.3535C143.091 22.2772 136.336 28.7071 128.007 28.7071C119.677 28.7071 112.922 22.2853 112.922 14.3535C112.922 6.42175 119.677 0 128.007 0C136.336 0 143.091 6.42175 143.091 14.3535ZM132.983 26.3852C131.441 26.9616 129.76 27.2782 128.007 27.2782C126.269 27.2782 124.605 26.9697 123.079 26.4014L124.516 25.1431L121.893 21.2299L117.03 19.9229V21.9768C115.382 19.8417 114.408 17.2032 114.408 14.3454C114.408 14.0207 114.424 13.6959 114.449 13.3793L115.407 13.9882L118.272 10.0751V5.92652L117.81 5.79663C119.271 4.22163 121.138 2.98762 123.249 2.23259L128.38 3.66957L132.293 2.07022C134.485 2.7603 136.425 3.96996 137.96 5.54495L137.724 10.0751L140.842 13.9882L141.581 13.7771C141.589 13.9639 141.597 14.1506 141.597 14.3454C141.597 17.1707 140.647 19.7848 139.032 21.9119L138.731 19.9229L133.746 21.2299L131.254 25.1431L132.983 26.3852Z" fill="#FDE000"/>
<path d="M122.981 10.1075V7.17676H133.04V9.7828C132.699 10.0507 132.245 10.5784 131.693 11.3659C131.059 12.2508 130.524 13.152 130.085 14.0694C129.143 16.0341 128.664 18.1611 128.64 20.4424H125.011C125.117 18.3966 125.726 16.2776 126.838 14.0694C127.3 13.152 127.836 12.2833 128.445 11.4633C128.973 10.7489 129.363 10.3186 129.614 10.1481V10.1075H122.981Z" fill="#FDE000"/>
</svg>
