<svg width="116" height="27" viewBox="0 0 116 27" fill="none" xmlns="http://www.w3.org/2000/svg">
<path d="M104.465 26.3167H95.4419V13.5117H104.465V16.0745H98.0762V18.6373H102.4V21.2001H98.0762V23.754H104.465V26.3167ZM111.835 26.3167H109.21V16.0745H105.254V13.5117H115.782V16.0745H111.835V26.3167Z" fill="#54CE25"/>
<path d="M39.7749 0C40.967 0 41.7618 1.15228 41.9528 1.67266C41.3109 1.49424 40.9211 1.78417 40.8065 2.00719L29.3441 26.4281H19.601C17.3849 18.2878 12.9515 1.89094 12.8381 1.44964C12.7235 1.0036 11.9211 1.11511 11.6919 1.22662C12.1504 0.334532 13.182 0 13.6405 0H20.4034C21.5038 0.356835 22.2373 1.70983 22.4666 2.34173L25.5615 13.3813C27.0133 10.2218 30.0777 3.52374 30.7196 2.00719C31.3615 0.490647 32.5153 0.0371703 33.0121 0H39.7749Z" fill="#54CE25"/>
<path d="M0 26.317H10.087L16.0474 13.1587C15.054 9.47888 13.0533 1.86245 12.8379 1.3386C12.6087 0.781047 11.9974 1.0784 11.6917 1.22709L0 26.317Z" fill="url(#paint0_linear_519_5843)"/>
<path d="M48.6009 26.3505H39.0871L35.5337 13.1923C36.4507 11.1512 40.5772 2.34183 40.8064 1.89579C41.0657 1.39114 41.6471 1.52408 41.9527 1.67276L48.6009 26.3505Z" fill="url(#paint1_linear_519_5843)"/>
<path d="M59.7618 26.317H50.7388V13.512H59.7618V16.0748H53.3731V18.6376H57.6965V21.2004H53.3731V23.7543H59.7618V26.317ZM71.7494 25.0222C71.1373 25.5282 70.4551 25.9183 69.7025 26.1919C68.9499 26.46 68.1665 26.5938 67.3527 26.5938C66.7284 26.5938 66.1257 26.5135 65.5444 26.3527C64.9692 26.1979 64.4307 25.9778 63.9288 25.6919C63.4272 25.4002 62.9683 25.0549 62.552 24.6562C62.1359 24.2514 61.781 23.8049 61.4873 23.3167C61.1937 22.8225 60.9642 22.2927 60.7989 21.7272C60.6398 21.1617 60.5603 20.5753 60.5603 19.9681C60.5603 19.3609 60.6398 18.7775 60.7989 18.2179C60.9642 17.6583 61.1937 17.1344 61.4873 16.6463C61.781 16.1522 62.1359 15.7057 62.552 15.3068C62.9683 14.902 63.4272 14.5568 63.9288 14.271C64.4307 13.9853 64.9692 13.765 65.5444 13.6102C66.1257 13.4495 66.7284 13.3691 67.3527 13.3691C68.1665 13.3691 68.9499 13.5061 69.7025 13.7799C70.4551 14.0478 71.1373 14.4347 71.7494 14.9407L70.3726 17.1731C69.9748 16.7802 69.5159 16.4736 68.9957 16.2534C68.4755 16.0272 67.9279 15.9141 67.3527 15.9141C66.7775 15.9141 66.2358 16.0212 65.728 16.2355C65.2262 16.4498 64.7855 16.7415 64.4061 17.1106C64.0267 17.4738 63.7269 17.9024 63.5068 18.3965C63.2865 18.8846 63.1762 19.4085 63.1762 19.9681C63.1762 20.5336 63.2865 21.0635 63.5068 21.5576C63.7269 22.0517 64.0267 22.4833 64.4061 22.8524C64.7855 23.2215 65.2262 23.5132 65.728 23.7275C66.2358 23.9418 66.7775 24.0489 67.3527 24.0489C67.683 24.0489 68.0044 24.0103 68.3164 23.9329C68.6284 23.8555 68.9253 23.7483 69.2068 23.6113V19.9681H71.7494V25.0222ZM81.5248 21.2004V18.6376C81.5248 18.2863 81.4545 17.956 81.3137 17.6464C81.1791 17.3309 80.9925 17.057 80.7539 16.8249C80.5152 16.5927 80.2337 16.4111 79.9093 16.2802C79.5911 16.1433 79.2516 16.0748 78.8905 16.0748C78.5295 16.0748 78.1868 16.1433 77.8626 16.2802C77.5444 16.4111 77.2659 16.5927 77.0272 16.8249C76.7886 17.057 76.599 17.3309 76.4582 17.6464C76.3234 17.956 76.2563 18.2863 76.2563 18.6376V21.2004H81.5248ZM84.1591 26.317H81.5248V23.7543H76.2563V26.317H73.6311V18.6376C73.6311 17.9292 73.7687 17.2654 74.044 16.6463C74.3196 16.0212 74.6928 15.4765 75.1639 15.0122C75.6412 14.5478 76.198 14.1817 76.8344 13.9138C77.477 13.646 78.1625 13.512 78.8905 13.512C79.6186 13.512 80.3011 13.646 80.9375 13.9138C81.5799 14.1817 82.1399 14.5478 82.6172 15.0122C83.0945 15.4765 83.4707 16.0212 83.7463 16.6463C84.0216 17.2654 84.1591 17.9292 84.1591 18.6376V26.317Z" fill="black"/>
<path fill-rule="evenodd" clip-rule="evenodd" d="M85.1164 26.4095H90.2571C90.8018 26.4095 91.3125 26.3082 91.79 26.106C92.2673 25.9035 92.6834 25.6296 93.0383 25.2844C93.3994 24.9331 93.6839 24.5254 93.8918 24.0611C94.1 23.5968 94.204 23.0996 94.204 22.5697C94.204 22.3318 94.1703 22.0876 94.1029 21.8376C94.0417 21.5816 93.95 21.3375 93.8276 21.1053C93.7052 20.8732 93.5585 20.6618 93.387 20.4713C93.2157 20.2749 93.0229 20.1201 92.8088 20.007C93.0168 19.882 93.2066 19.7242 93.3778 19.5337C93.5493 19.3432 93.696 19.1319 93.8184 18.8997C93.9409 18.6676 94.0358 18.4265 94.1029 18.1764C94.1703 17.9264 94.204 17.6823 94.204 17.4442C94.204 16.9144 94.1 16.4173 93.8918 15.953C93.6839 15.4886 93.3994 15.0838 93.0383 14.7386C92.6834 14.3873 92.2673 14.1105 91.79 13.9081C91.3125 13.7057 90.8018 13.6045 90.2571 13.6045H83.6758V15.2061C84.1052 15.6478 84.4479 16.1586 84.7033 16.7388C84.9788 17.3579 85.1164 18.0217 85.1164 18.7301V26.4095ZM90.2571 23.8468H86.3101V21.2928H90.2571C90.4407 21.2928 90.6119 21.3256 90.771 21.3911C90.9301 21.4566 91.0679 21.5488 91.1841 21.6679C91.3066 21.781 91.4015 21.9149 91.4686 22.0697C91.536 22.2245 91.5697 22.3911 91.5697 22.5697C91.5697 22.7484 91.536 22.915 91.4686 23.0698C91.4015 23.2245 91.3066 23.3615 91.1841 23.4806C91.0679 23.5936 90.9301 23.6831 90.771 23.7484C90.6119 23.814 90.4407 23.8468 90.2571 23.8468ZM90.2571 18.7301H86.3101V16.1673H90.2571C90.4407 16.1673 90.6119 16.2 90.771 16.2655C90.9301 16.331 91.0679 16.4233 91.1841 16.5423C91.3066 16.6554 91.4015 16.7894 91.4686 16.9442C91.536 17.0989 91.5697 17.2656 91.5697 17.4442C91.5697 17.6228 91.536 17.7925 91.4686 17.9532C91.4015 18.108 91.3066 18.2449 91.1841 18.364C91.0679 18.4771 90.9301 18.5664 90.771 18.6318C90.6119 18.6973 90.4407 18.7301 90.2571 18.7301Z" fill="#54CE25"/>
<defs>
<linearGradient id="paint0_linear_519_5843" x1="14.4427" y1="3.34579" x2="2.9218" y2="26.2415" gradientUnits="userSpaceOnUse">
<stop stop-color="#3E931D"/>
<stop offset="1" stop-color="#54CE25"/>
</linearGradient>
<linearGradient id="paint1_linear_519_5843" x1="38.6286" y1="4.57205" x2="45.6061" y2="26.9858" gradientUnits="userSpaceOnUse">
<stop stop-color="#3D921C"/>
<stop offset="1" stop-color="#54CE25"/>
</linearGradient>
</defs>
</svg>
