<svg width="114" height="38" viewBox="0 0 114 38" fill="none" xmlns="http://www.w3.org/2000/svg">
<g clip-path="url(#clip0_519_5733)">
<path d="M33.2108 23.7275C32.7427 23.7275 32.3428 23.8657 32.0014 24.1519C31.6795 24.4086 31.4064 24.754 31.1723 25.1587C30.9578 25.5732 30.792 26.0273 30.6652 26.5306C30.5579 27.034 30.4701 27.5078 30.4116 27.9618C31.7283 27.9421 32.7914 27.7151 33.601 27.2808C34.43 26.8465 34.8494 26.2247 34.8494 25.4252C34.8494 24.9909 34.7129 24.5961 34.43 24.2506C34.1667 23.9052 33.7668 23.7275 33.2108 23.7275ZM32.6061 37.98C31.6698 37.98 30.7334 37.8615 29.7971 37.6247C28.8802 37.3878 28.0512 36.9732 27.3099 36.381C26.5882 35.7987 25.9932 35.0091 25.525 34.0319C25.0568 33.0548 24.8228 31.821 24.8228 30.3405C24.8228 29.7976 24.8618 29.1462 24.9495 28.3862C25.0373 27.6262 25.1934 26.8465 25.4275 26.0371C25.6811 25.2278 26.0224 24.4382 26.4516 23.6584C26.9003 22.8491 27.4757 22.1384 28.178 21.5067C28.8802 20.8751 29.7288 20.3618 30.7334 19.9769C31.7381 19.5821 32.928 19.3945 34.313 19.3945C35.4249 19.3945 36.3613 19.5228 37.122 19.7893C37.8926 20.046 38.507 20.4112 38.9752 20.8652C39.4434 21.2995 39.7848 21.8127 39.9993 22.3951C40.2139 22.9774 40.3212 23.6091 40.3212 24.2901C40.3212 25.287 40.1164 26.1358 39.7165 26.8366C39.3361 27.5374 38.8192 28.1197 38.1852 28.5935C37.5707 29.0475 36.8782 29.4127 36.1077 29.6693C35.3371 29.926 34.5861 30.1332 33.8448 30.2912C33.1036 30.4195 32.411 30.5083 31.7673 30.5478C31.1528 30.5675 30.6749 30.5774 30.3335 30.5774C30.3335 30.9919 30.3823 31.4065 30.4896 31.821C30.6164 32.2158 30.8017 32.5613 31.0358 32.8673C31.2699 33.1732 31.582 33.42 31.9624 33.6174C32.3428 33.8148 32.8109 33.9135 33.3669 33.9135C33.9229 33.9135 34.3423 33.8247 34.6446 33.6569C34.9665 33.4595 35.2201 33.2522 35.4152 33.0351C35.6102 32.7982 35.7663 32.5909 35.8931 32.4132C36.0394 32.2158 36.2345 32.1171 36.4685 32.1171C36.5758 32.1171 36.7514 32.1467 37.0147 32.2158C37.2878 32.2553 37.5707 32.3639 37.8438 32.5415C38.1169 32.7192 38.3607 32.9561 38.5753 33.2621C38.7899 33.568 38.8972 33.9628 38.8972 34.4366C38.8972 35.0683 38.7021 35.6112 38.3217 36.0652C37.9413 36.5192 37.4341 36.8943 36.8197 37.1706C36.2247 37.4569 35.5517 37.6641 34.8104 37.7925C34.0301 37.9208 33.3084 37.98 32.6061 37.98Z" fill="black"/>
<path d="M53.1082 34.7823C53.1082 34.3085 53.1374 33.6867 53.2057 32.9267C53.2935 32.1469 53.3617 31.3277 53.43 30.4789C53.5178 29.6103 53.5861 28.7714 53.6544 27.962C53.7421 27.1527 53.7812 26.4815 53.7812 25.9386C53.7812 25.376 53.6446 24.8727 53.3617 24.4384C53.1082 23.9844 52.5912 23.7573 51.8304 23.7573C51.0892 23.7573 50.4649 23.9449 49.9773 24.3101C49.4896 24.6753 49.0702 25.3563 48.7288 26.3334C48.4069 27.3106 48.1436 28.6628 47.929 30.3802C47.7144 32.0976 47.5096 34.3085 47.3243 37.0031C47.3048 37.2597 47.2462 37.4373 47.1682 37.5262C47.0804 37.615 46.9049 37.6545 46.622 37.6545H45.4711C44.8078 37.6545 44.2714 37.5854 43.8422 37.4571C43.4423 37.309 43.1107 37.1018 42.8571 36.8353C42.623 36.5786 42.4572 36.2628 42.3499 35.8877C42.2622 35.4929 42.2231 35.0488 42.2231 34.5454C42.2231 34.2197 42.2329 33.7657 42.2524 33.1734C42.2914 32.5615 42.3597 31.7423 42.4475 30.696C42.5353 29.6301 42.6328 28.2976 42.7303 26.6789C42.8571 25.0503 43.0034 23.0368 43.179 20.6482C43.1985 20.1745 43.257 19.8882 43.3351 19.7994C43.4033 19.7303 43.5691 19.7007 43.8422 19.7007H45.0907C45.7247 19.7007 46.2514 19.7797 46.6513 19.9277C47.0804 20.0758 47.4218 20.2831 47.6754 20.5495C47.929 20.7864 48.1143 21.0825 48.2216 21.428C48.3289 21.7537 48.3874 22.0893 48.4167 22.4347C49.0799 21.2799 49.8309 20.4903 50.6795 20.056C51.5281 19.602 52.5912 19.375 53.8689 19.375C54.7663 19.375 55.5368 19.4737 56.2 19.6711C56.8633 19.8685 57.3997 20.2041 57.8289 20.6779C58.2776 21.1319 58.6092 21.7438 58.814 22.5038C59.0286 23.2441 59.1359 24.1719 59.1359 25.2773C59.1359 25.6228 59.1164 26.1262 59.0676 26.7776C59.0188 27.429 58.9701 28.1495 58.9115 28.9293C58.8433 29.6893 58.775 30.4986 58.6872 31.3475C58.6189 32.1766 58.5604 32.9464 58.4921 33.667C58.4239 34.3875 58.3751 35.0192 58.3361 35.562C58.2971 36.1049 58.2678 36.4602 58.2678 36.6379C58.2678 37.1116 58.219 37.4077 58.1117 37.5163C58.0045 37.6051 57.7704 37.6446 57.4095 37.6446H56.3854C55.7026 37.6446 55.1467 37.5755 54.7273 37.4472C54.2981 37.3189 53.9762 37.1314 53.7421 36.8945C53.508 36.6576 53.3422 36.3615 53.235 36.016C53.1569 35.6607 53.1082 35.2462 53.1082 34.7823Z" fill="black"/>
<path d="M69.0849 18.9215C69.0459 19.4841 68.9971 20.1553 68.9581 20.9153C68.9386 21.6753 68.8898 22.5044 68.8313 23.3927C69.5141 23.5703 70.1188 23.6493 70.6552 23.6493C71.2892 23.6493 71.8062 23.5703 72.1866 23.4223C72.5669 23.2742 72.8693 23.0768 73.0839 22.8399C73.318 22.6031 73.4643 22.3366 73.5325 22.0602C73.6203 21.774 73.6593 21.5075 73.6593 21.241C73.6593 20.5698 73.435 19.9875 72.9864 19.5137C72.5572 19.0103 71.8159 18.7636 70.7528 18.7636C70.5187 18.7636 70.2553 18.7833 69.953 18.8327C69.6701 18.8425 69.3775 18.8722 69.0849 18.9215ZM70.4212 27.8934C70.1871 27.8934 69.9042 27.9132 69.5628 27.9625C69.2215 27.9823 68.8703 28.0316 68.5094 28.0909L68.1583 33.4109C68.9289 33.6477 69.6214 33.7662 70.2358 33.7662C70.8991 33.7662 71.4258 33.6675 71.8354 33.4701C72.2353 33.2727 72.5474 33.0358 72.762 32.7496C72.9961 32.4436 73.1424 32.1179 73.2107 31.7724C73.2985 31.4072 73.3375 31.0618 73.3375 30.7657C73.3375 29.9563 73.1131 29.2851 72.6645 28.7423C72.2353 28.1698 71.4843 27.8934 70.4212 27.8934ZM68.607 38.0005C67.3488 38.0005 66.3149 37.9116 65.5053 37.7438C64.6958 37.5958 64.0423 37.3589 63.5546 37.0628C63.0865 36.7371 62.7548 36.3324 62.5695 35.8586C62.4037 35.3849 62.3159 34.8124 62.3159 34.161C62.3159 33.9636 62.3257 33.6971 62.3452 33.3418C62.3647 32.9766 62.3939 32.4633 62.4427 31.8119C62.4817 31.1605 62.5403 30.3215 62.5988 29.295C62.6866 28.2488 62.7938 26.9459 62.9206 25.3766C63.0669 23.442 63.184 21.9121 63.2718 20.7771C63.3596 19.642 63.4181 18.7734 63.4668 18.1714C63.5059 17.5397 63.5351 17.1054 63.5351 16.8685C63.5546 16.6119 63.5644 16.3947 63.5644 16.2171C63.5644 15.8716 63.5644 15.5854 63.5644 15.3683C63.5839 15.1511 63.6034 14.9833 63.6327 14.8747C63.6717 14.7464 63.7302 14.6576 63.7887 14.6181C63.8765 14.549 63.9935 14.5194 64.1398 14.5194C65.3981 14.4306 66.4612 14.3714 67.3293 14.322C68.2266 14.2825 68.9971 14.2529 69.6604 14.2529C71.2795 14.2529 72.6645 14.3911 73.8154 14.6773C74.9858 14.934 75.9319 15.3189 76.6537 15.8223C77.3755 16.3257 77.9119 16.9376 78.2533 17.6779C78.5947 18.4181 78.7605 19.2571 78.7605 20.1947C78.7605 20.7179 78.7117 21.2607 78.6044 21.8233C78.4971 22.3662 78.3216 22.8893 78.0582 23.3927C77.8046 23.896 77.4535 24.3402 77.0048 24.735C76.5757 25.1002 76.0392 25.3766 75.376 25.5542C76.6147 25.949 77.4828 26.6005 77.9899 27.5085C78.4971 28.3968 78.7605 29.4628 78.7605 30.7064C78.7605 31.7033 78.6044 32.6509 78.2826 33.549C77.9607 34.4176 77.4145 35.1875 76.6244 35.8685C75.8344 36.5199 74.7908 37.0431 73.4935 37.4379C72.1866 37.8031 70.5577 38.0005 68.607 38.0005Z" fill="black"/>
<path d="M84.9734 37.6741C83.7835 37.6741 82.9252 37.4372 82.418 36.9536C81.9108 36.4798 81.6475 35.7889 81.6475 34.9006C81.6475 34.4663 81.6767 33.726 81.745 32.6798C81.8133 31.6138 81.8913 30.4097 81.9986 29.0575C82.1059 27.7053 82.2132 26.284 82.3205 24.7837C82.4278 23.2834 82.535 21.872 82.6423 20.5395C82.7496 19.2169 82.8374 18.0523 82.8959 17.0455C82.9642 16.0486 82.9935 15.3577 82.9935 14.9925C82.9935 14.6668 83.1593 14.499 83.5006 14.499H94.7368C94.8636 14.499 94.9806 14.5286 95.0879 14.5977C95.1952 14.6668 95.244 14.7853 95.244 14.953L95.1172 16.8777C95.0782 17.5292 94.8928 18.0621 94.571 18.4767C94.2686 18.8715 93.6444 19.059 92.6885 19.059H88.2799L87.958 23.6585H92.4935C92.6203 23.6585 92.7373 23.6881 92.8446 23.7572C92.9519 23.8263 93.0006 23.9447 93.0006 24.1125L92.8738 26.0372C92.8348 26.6886 92.6495 27.2216 92.3277 27.6362C92.0253 28.031 91.4011 28.2185 90.4452 28.2185H87.6849L87.3338 33.0845H94.3564C94.4832 33.0845 94.6002 33.124 94.7075 33.2128C94.8148 33.2819 94.8636 33.3905 94.8636 33.5385L94.7368 35.4632C94.6978 36.1146 94.5125 36.6476 94.1906 37.0621C93.8882 37.4569 93.264 37.6445 92.3081 37.6445H84.9734V37.6741Z" fill="black"/>
<path d="M107.992 19.0787L106.782 37.1805C106.763 37.5062 106.646 37.674 106.431 37.674H104.676C103.486 37.674 102.627 37.4371 102.12 36.9535C101.613 36.4797 101.35 35.7888 101.35 34.9005C101.35 34.5748 101.359 34.0813 101.379 33.4298C101.418 32.7784 101.476 32.0184 101.535 31.1498C101.603 30.2615 101.662 29.3041 101.73 28.2776C101.818 27.2314 101.896 26.1852 101.984 25.1488C102.071 24.0828 102.14 23.0267 102.208 21.9805C102.296 20.9342 102.364 19.967 102.432 19.0787H97.3213C97.0873 19.0787 96.9702 18.9306 96.9702 18.6246L97.0677 16.7987C97.0873 16.5124 97.136 16.2459 97.1946 15.9794C97.2823 15.6932 97.4091 15.4465 97.5749 15.2293C97.7408 15.0122 97.9553 14.8345 98.2089 14.7062C98.482 14.5779 98.8136 14.5088 99.194 14.5088H113.473C113.6 14.5088 113.717 14.5384 113.824 14.6075C113.932 14.6766 113.98 14.795 113.98 14.9628L113.854 16.8875C113.815 17.5389 113.629 18.0719 113.307 18.4865C113.005 18.8813 112.381 19.0688 111.425 19.0688H107.992V19.0787Z" fill="black"/>
<path d="M2.51643 2.92156L0 0H20.4143C25.1643 0 28.5585 4.56 27.1833 9.07065L18.5416 37.319L16.1715 34.7527L24.3547 7.66909C25.0667 5.30026 23.2818 2.91169 20.7947 2.91169H2.51643V2.92156Z" fill="#FF5500"/>
<path d="M2.51643 5.90265L0 2.92188V5.90265L2.51643 8.88343H17.4199C17.7418 8.88343 17.9759 9.18941 17.8783 9.49538L10.1535 34.7629L12.5236 37.3291H15.635L13.2649 34.7629L21.2628 8.58733C21.6725 7.24499 20.6679 5.89278 19.2536 5.89278H2.51643V5.90265Z" fill="#FF5500"/>
<path d="M0 12.2984V9.11035L2.51643 12.0615H13.7331C13.9379 12.0615 14.0744 12.2589 14.0159 12.4465L7.1884 34.7628L9.55852 37.3291H6.37885L3.97947 34.7628L10.0169 15.3384C10.056 15.22 9.96817 15.1114 9.84138 15.1114H2.3116L0 12.2984Z" fill="#FF5500"/>
<path d="M2.53593 12.0615L2.32136 15.1015L0 12.2688V9.11035L2.53593 12.0615Z" fill="#B84A13"/>
<path d="M2.53593 5.87304V8.88343L0 5.91252V2.92188L2.53593 5.87304Z" fill="#B84A13"/>
<path d="M2.53593 20.4902V23.4118L0 20.4902H2.53593Z" fill="#B84A13"/>
<path d="M7.20793 34.7432H3.97949L6.38863 37.3094H9.58781L7.20793 34.7432Z" fill="#B84A13"/>
<path d="M13.294 34.7432H10.1533L12.5332 37.3094H15.6739L13.294 34.7432Z" fill="#B84A13"/>
<path d="M19.3218 34.7728L16.1616 34.7432L18.5415 37.2995L19.3218 34.7728Z" fill="#B84A13"/>
</g>
<defs>
<clipPath id="clip0_519_5733">
<rect width="114" height="38" fill="white"/>
</clipPath>
</defs>
</svg>
