<svg width="155" height="46" viewBox="0 0 155 46" fill="none" xmlns="http://www.w3.org/2000/svg">
<path d="M41.1046 32.62C41.2227 33.4538 41.4658 34.0722 41.82 34.4821C42.4729 35.2325 43.5842 35.6077 45.1678 35.6077C46.1124 35.6077 46.8834 35.5104 47.4738 35.3089C48.592 34.9337 49.1546 34.225 49.1546 33.1967C49.1546 32.5992 48.8768 32.1336 48.3211 31.8001C47.7655 31.4805 46.8903 31.1956 45.7026 30.9455L43.6745 30.5147C41.6811 30.0839 40.2989 29.6254 39.5349 29.1182C38.2431 28.2774 37.5971 26.9642 37.5971 25.1786C37.5971 23.5527 38.2222 22.1978 39.4724 21.1209C40.7226 20.0439 42.5563 19.502 44.9803 19.502C47.0014 19.502 48.724 20.0092 50.1478 21.0305C51.5786 22.045 52.3287 23.518 52.3982 25.4495H48.5434C48.4739 24.3587 47.9738 23.5805 47.0362 23.115C46.4111 22.8093 45.6332 22.6564 44.7094 22.6564C43.6745 22.6564 42.8549 22.8509 42.2368 23.247C41.6186 23.643 41.313 24.1919 41.313 24.9006C41.313 25.5538 41.6186 26.0332 42.2229 26.3597C42.6118 26.5751 43.4453 26.8253 44.7233 27.1101L48.0294 27.8605C49.481 28.1871 50.5715 28.6318 51.3077 29.1807C52.4537 30.0353 53.0233 31.2721 53.0233 32.8979C53.0233 34.5585 52.3496 35.9412 51.0091 37.046C49.6755 38.1368 47.7794 38.6857 45.3345 38.6857C42.8341 38.6857 40.8685 38.1438 39.4377 37.0668C38.0069 35.9829 37.2915 34.489 37.2915 32.5992H41.1046V32.62Z" fill="#2D0A5C"/>
<path d="M63.3513 24.4854C65.0113 24.4854 66.4074 25.062 67.5534 26.2224C68.7064 27.3827 69.2829 29.085 69.2829 31.3292C69.2829 33.6986 68.7203 35.5051 67.5882 36.7488C66.4699 37.9925 65.0252 38.6109 63.2541 38.6109C62.1289 38.6109 61.1913 38.3469 60.4411 37.8118C60.0313 37.5131 59.6354 37.0823 59.2465 36.5195V43.5301H55.5723V24.7841H59.1284V26.7713C59.5243 26.1876 59.9549 25.7291 60.4064 25.3886C61.2329 24.7911 62.2123 24.4854 63.3513 24.4854ZM65.4559 31.5099C65.4559 30.4746 65.2058 29.5575 64.6988 28.7584C64.2056 27.9594 63.4 27.5634 62.2748 27.5634C60.9273 27.5634 60.0036 28.1679 59.5035 29.3768C59.2465 30.0161 59.1145 30.8359 59.1145 31.8226C59.1145 33.3859 59.5521 34.4837 60.4272 35.116C60.9482 35.4842 61.5663 35.6718 62.2748 35.6718C63.3097 35.6718 64.0945 35.2966 64.6293 34.5393C65.185 33.775 65.4559 32.7675 65.4559 31.5099Z" fill="#2D0A5C"/>
<path d="M77.5484 30.0491C78.236 29.9657 78.7222 29.8615 79.0209 29.7433C79.5487 29.528 79.8127 29.1944 79.8127 28.7428C79.8127 28.1939 79.6112 27.8118 79.2014 27.6103C78.8056 27.3949 78.2152 27.2907 77.4303 27.2907C76.5552 27.2907 75.9301 27.4991 75.5689 27.909C75.3119 28.2148 75.1383 28.6247 75.048 29.1458H71.471C71.5474 27.9716 71.8947 27.0058 72.5128 26.2484C73.4922 25.0603 75.1799 24.4697 77.5623 24.4697C79.1181 24.4697 80.4933 24.7615 81.7019 25.3452C82.9104 25.9288 83.5147 27.0336 83.5147 28.6525V34.8224C83.5147 35.2532 83.5216 35.7674 83.5424 36.3788C83.5702 36.8374 83.6397 37.15 83.7647 37.3168C83.8897 37.4836 84.0703 37.6156 84.3134 37.7267V38.2478H80.278C80.1669 37.9769 80.0905 37.7198 80.0419 37.4836C80.0002 37.2473 79.9655 36.9763 79.9377 36.6706C79.4237 37.1987 78.8333 37.6434 78.1666 38.0186C77.3678 38.4563 76.4649 38.6717 75.4578 38.6717C74.1728 38.6717 73.1102 38.3243 72.2697 37.6364C71.4363 36.9347 71.0195 35.948 71.0195 34.6765C71.0195 33.0229 71.6933 31.8278 73.0407 31.0843C73.7769 30.6813 74.8605 30.3965 76.2982 30.2228L77.5484 30.0491ZM79.8057 31.6958C79.5696 31.8347 79.3334 31.9529 79.0903 32.0432C78.8542 32.1266 78.5277 32.203 78.111 32.2794L77.2775 32.4253C76.4996 32.5573 75.937 32.7171 75.5967 32.9047C75.0271 33.2244 74.7354 33.7246 74.7354 34.3986C74.7354 34.9961 74.9091 35.4339 75.2564 35.7048C75.6106 35.9689 76.0412 36.1009 76.5482 36.1009C77.347 36.1009 78.0832 35.8785 78.75 35.4339C79.4237 34.9892 79.7779 34.1762 79.8057 33.002V31.6958Z" fill="#2D0A5C"/>
<path d="M95.2948 29.6044C95.2254 29.1041 95.0448 28.6525 94.76 28.2495C94.3433 27.7075 93.6973 27.4366 92.8222 27.4366C91.572 27.4366 90.7177 28.0272 90.2593 29.2014C90.0162 29.8267 89.8981 30.6605 89.8981 31.6958C89.8981 32.6824 90.0162 33.4745 90.2593 34.079C90.7038 35.1976 91.5373 35.7604 92.7597 35.7604C93.6279 35.7604 94.246 35.5381 94.6072 35.0934C94.9684 34.6487 95.1906 34.072 95.274 33.3633H99.0593C98.976 34.4333 98.5662 35.4478 97.8369 36.3996C96.677 37.9352 94.9545 38.7064 92.6694 38.7064C90.3843 38.7064 88.7104 38.0672 87.6338 36.7818C86.5573 35.4964 86.0225 33.8358 86.0225 31.7861C86.0225 29.4724 86.6198 27.6798 87.8075 26.3944C88.9952 25.109 90.6343 24.4697 92.725 24.4697C94.503 24.4697 95.9547 24.8449 97.0868 25.6023C98.2259 26.3596 98.8996 27.6937 99.108 29.6113H95.2948V29.6044Z" fill="#2D0A5C"/>
<path d="M107.254 24.4219C108.435 24.4219 109.498 24.6303 110.442 25.0542C111.387 25.471 112.172 26.1381 112.783 27.0413C113.338 27.8404 113.7 28.7645 113.866 29.8206C113.964 30.4389 113.998 31.3283 113.984 32.4886H104.274C104.323 33.8366 104.775 34.7815 105.615 35.3304C106.129 35.6709 106.74 35.8376 107.462 35.8376C108.226 35.8376 108.845 35.6292 109.324 35.2193C109.581 34.9969 109.817 34.6912 110.011 34.2952H113.797C113.7 35.0942 113.262 35.9002 112.484 36.727C111.269 38.0332 109.567 38.6864 107.379 38.6864C105.573 38.6864 103.983 38.1375 102.601 37.0327C101.218 35.928 100.531 34.1353 100.531 31.6549C100.531 29.3272 101.149 27.5416 102.392 26.2979C103.649 25.0472 105.268 24.4219 107.254 24.4219ZM107.254 27.3262C106.393 27.3262 105.726 27.5833 105.247 28.0905C104.781 28.5977 104.483 29.2925 104.365 30.161H110.13C110.067 29.23 109.768 28.5282 109.234 28.0488C108.706 27.5694 108.046 27.3262 107.254 27.3262Z" fill="#2D0A5C"/>
<path d="M123.216 35.6918C124.167 35.6918 124.91 35.3235 125.438 34.5939C125.966 33.8644 126.23 32.8986 126.23 31.7035C126.23 30.7516 126.098 29.9596 125.841 29.3342C125.348 28.1461 124.438 27.5555 123.104 27.5555C121.757 27.5555 120.833 28.1322 120.333 29.2925C120.076 29.9109 119.944 30.7099 119.944 31.6896C119.944 32.843 120.215 33.7949 120.75 34.5523C121.292 35.3166 122.111 35.6918 123.216 35.6918ZM124.167 24.4844C126.035 24.4844 127.494 25.1237 128.543 26.3952C129.599 27.6736 130.133 29.3134 130.133 31.3283C130.133 33.4197 129.612 35.1498 128.571 36.5255C127.529 37.9013 126.077 38.5891 124.209 38.5891C123.035 38.5891 122.097 38.3668 121.382 37.9221C120.958 37.6581 120.5 37.1995 120 36.5394V38.2278H116.367V20.0654H120.062V26.5341C120.528 25.9088 121.049 25.4294 121.611 25.1028C122.285 24.6929 123.132 24.4844 124.167 24.4844Z" fill="#2D0A5C"/>
<path d="M138.392 24.4219C139.573 24.4219 140.636 24.6303 141.58 25.0542C142.525 25.471 143.31 26.1381 143.921 27.0413C144.477 27.8404 144.838 28.7645 145.004 29.8206C145.102 30.4389 145.136 31.3283 145.123 32.4886H135.413C135.461 33.8366 135.913 34.7815 136.753 35.3304C137.267 35.6709 137.878 35.8376 138.601 35.8376C139.365 35.8376 139.983 35.6292 140.462 35.2193C140.719 34.9969 140.955 34.6912 141.15 34.2952H144.935C144.838 35.0942 144.4 35.9002 143.622 36.727C142.407 38.0332 140.705 38.6864 138.517 38.6864C136.711 38.6864 135.121 38.1375 133.739 37.0327C132.357 35.928 131.669 34.1353 131.669 31.6549C131.669 29.3272 132.287 27.5416 133.53 26.2979C134.788 25.0472 136.406 24.4219 138.392 24.4219ZM138.392 27.3262C137.531 27.3262 136.864 27.5833 136.385 28.0905C135.92 28.5977 135.621 29.2925 135.503 30.161H141.268C141.205 29.23 140.907 28.5282 140.372 28.0488C139.844 27.5694 139.184 27.3262 138.392 27.3262Z" fill="#2D0A5C"/>
<path d="M146.178 27.4087V24.9004H148.157V21.1484H151.831V24.9004H154.137V27.4087H151.831V34.5166C151.831 35.0655 151.908 35.4129 152.054 35.5519C152.2 35.6839 152.651 35.7464 153.408 35.7464C153.519 35.7464 153.637 35.7464 153.762 35.7464C153.894 35.7395 154.019 35.7325 154.137 35.7186V38.345L152.38 38.4076C150.63 38.4632 149.428 38.1783 148.789 37.546C148.373 37.143 148.164 36.5246 148.164 35.6839V27.4087H146.178Z" fill="#2D0A5C"/>
<path d="M28.1723 12.4429C28.0612 12.4429 27.9709 12.5332 27.9709 12.6374V13.0265C27.9709 13.1307 28.0612 13.2211 28.1723 13.2211C28.2835 13.2211 28.3737 13.1307 28.3737 13.0265V12.6374C28.3737 12.5332 28.2835 12.4429 28.1723 12.4429ZM27.9709 13.6102C27.9709 13.5059 28.0612 13.4156 28.1723 13.4156C28.2835 13.4156 28.3737 13.5059 28.3737 13.6102V16.3269C28.3737 16.4311 28.2835 16.5214 28.1723 16.5214C28.0612 16.5214 27.9709 16.4311 27.9709 16.3269V13.6102ZM12.6281 15.4584C13.1976 13.7769 15.7189 10.1917 21.2128 9.33707C18.7471 9.30233 13.5935 10.4835 12.6281 15.4584ZM21.2059 22.74C26.7276 22.74 31.2006 19.4327 31.2006 15.3611C31.2006 11.2825 26.7276 7.98219 21.2059 7.98219C15.6841 7.98219 11.2112 11.2895 11.2112 15.3611C11.2112 19.4327 15.6911 22.74 21.2059 22.74ZM23.7271 30.3134H19.282V30.8971H23.7271V30.3134ZM21.1086 25.0676H21.9143V29.3407H23.7271V29.9243H19.282V29.3407H21.1017V25.0676H21.1086ZM21.3101 37.5673V34.5032C20.81 34.4406 20.3307 34.2113 19.9626 33.8292C19.921 33.7875 19.8932 33.725 19.8932 33.6624V33.593C19.8932 33.3984 20.1432 33.3011 20.2821 33.447C20.9975 34.1974 22.2199 34.1974 22.9353 33.447C23.0743 33.3011 23.3243 33.3984 23.3243 33.593V33.6624C23.3243 33.725 23.3035 33.7806 23.2548 33.8292C22.8867 34.2183 22.4075 34.4406 21.9074 34.5032V37.602C24.8523 34.9756 27.9987 36.3792 29.0752 37.7896C29.0266 37.1782 28.8391 35.3647 28.6446 33.5096C28.4085 31.2375 28.1654 28.8891 28.1654 28.5695C28.1654 27.9858 28.8738 27.1104 29.3739 27.0131C29.7768 26.9367 29.742 27.3674 29.6795 27.5967C29.3461 28.2776 28.7905 29.6742 29.2767 29.8271C29.7629 29.9799 31.5618 29.57 32.4091 29.3407C32.5689 26.3878 30.6588 23.7058 29.6865 22.74C27.0471 24.5882 23.0395 25.0607 21.4559 25.0676C19.8584 25.0607 15.2743 24.6785 12.635 22.8373C11.6557 23.81 9.74565 26.492 9.91235 29.438C10.7528 29.6673 12.5586 30.0772 13.0448 29.9243C13.531 29.7715 12.9754 28.368 12.642 27.694C12.5725 27.4647 12.5378 27.0339 12.9476 27.1104C13.4546 27.2076 14.1561 28.0831 14.1561 28.6667C14.1561 29.2504 14.1422 36.6293 14.045 37.9911C15.1077 36.4 18.6985 34.9895 21.3101 37.5673ZM31.3048 34.0029C32.4786 34.0029 33.4232 33.0927 33.4232 31.9601C33.4232 30.8346 32.4716 29.9174 31.3048 29.9174C30.1379 29.9174 29.1864 30.8276 29.1864 31.9601C29.1864 33.0927 30.131 34.0029 31.3048 34.0029ZM13.6352 31.9671C13.6352 33.0927 12.6836 34.0098 11.5168 34.0098C10.343 34.0098 9.39837 33.0996 9.39837 31.9671C9.39837 30.8415 10.3499 29.9243 11.5168 29.9243C12.6836 29.9243 13.6352 30.8415 13.6352 31.9671ZM22.5186 1.27725C22.5186 1.80531 22.1852 2.24999 21.7129 2.44454V3.61182C24.6092 3.74384 30.7978 5.3419 32.4161 11.088C33.4579 11.1853 35.5485 11.9635 35.5485 14.2911C35.6527 15.3264 35.1665 17.4177 32.4161 17.4942C32.1452 18.1125 31.4645 19.4744 30.9019 20.0163C30.9019 20.468 30.7978 21.4546 30.3949 21.7673C29.8879 22.1564 25.3038 24.5812 21.1642 24.484C17.0246 24.5812 12.4405 22.2467 11.9335 21.8645C11.5307 21.5519 11.4265 20.5722 11.4265 20.1136C10.8639 19.5717 10.1832 18.2029 9.91235 17.5914C7.16883 17.515 6.68264 15.4236 6.77988 14.3884C6.77988 12.0607 8.86356 11.2825 9.91235 11.1853C11.5307 5.43223 17.7192 3.73689 20.6155 3.60487V2.40285C20.1918 2.1944 19.8932 1.77057 19.8932 1.27725C19.8932 0.582441 20.4835 0.0126953 21.2059 0.0126953C21.9282 0.0126953 22.5186 0.575493 22.5186 1.27725Z" fill="#2D0A5C"/>
<path d="M0.111816 45.9884C4.73064 42.7714 9.31473 40.7634 13.7182 39.6517C13.7321 39.5892 13.746 39.5266 13.7669 39.4641C13.9127 38.943 14.1628 38.4497 14.517 38.0259C14.8712 37.602 15.3018 37.2546 15.795 36.9975C16.2881 36.7405 16.8299 36.5945 17.3925 36.5529C17.9551 36.5112 18.5107 36.5806 19.0386 36.7613C19.5664 36.9419 20.0526 37.2199 20.4624 37.5881C20.775 37.866 21.032 38.1857 21.2403 38.54C21.4556 38.5331 21.6779 38.5261 21.8932 38.5192C21.9974 38.3455 22.1155 38.1787 22.2405 38.0189C22.5878 37.5951 23.0253 37.2477 23.5185 36.9906C24.0116 36.7405 24.5534 36.5876 25.116 36.5459C25.6786 36.5042 26.2342 36.5737 26.7621 36.7543C27.2899 36.935 27.7761 37.2129 28.1859 37.5812C28.5957 37.9494 28.9222 38.3941 29.1444 38.8944C29.1653 38.943 29.1861 38.9986 29.2069 39.0472C36.4095 40.277 42.1952 43.369 45.4388 45.9745C25.6022 41.0344 6.95323 43.9248 0.111816 45.9884Z" fill="#2D0A5C"/>
</svg>
